<svg xmlns="http://www.w3.org/2000/svg" width="164" height="52" fill="none"><mask id="a" fill="#fff"><path d="M150.511 0H11.534c-.423 0-.833.013-1.257.013-.915.025-1.831.077-2.733.23a9.6 9.6 0 0 0-2.597.81 8.3 8.3 0 0 0-2.214 1.513 7.8 7.8 0 0 0-1.612 2.079A8.3 8.3 0 0 0 .26 7.083C.096 7.93.04 8.79.014 9.649c0 .398-.014.796-.014 1.18v29.654c0 .398.014.783.027 1.18.028.86.082 1.72.246 2.567.164.86.424 1.668.861 2.438.41.77.957 1.463 1.613 2.066a8.3 8.3 0 0 0 2.214 1.514 9.6 9.6 0 0 0 2.597.808c.902.154 1.831.206 2.733.231.41.026.82.039 1.244.039h140.452c.41 0 .847 0 1.257-.013.916-.026 1.831-.077 2.733-.231a9.9 9.9 0 0 0 2.611-.808 8.5 8.5 0 0 0 2.214-1.514 8.3 8.3 0 0 0 1.612-2.066 7.9 7.9 0 0 0 .848-2.438c.164-.847.218-1.707.259-2.567v-1.18c.014-.462.014-.924.014-1.399V12.241c0-.475 0-.936-.014-1.398v-1.18c-.027-.86-.082-1.72-.259-2.567a7.9 7.9 0 0 0-.848-2.438 8.4 8.4 0 0 0-1.612-2.079 9 9 0 0 0-2.214-1.514 9.9 9.9 0 0 0-2.611-.808c-.902-.154-1.817-.206-2.733-.231-.41 0-.847-.013-1.257-.013C151.508 0 151.003 0 150.511 0"/></mask><path fill="#fff" d="M10.277.013V-1.27h-.036zm-2.733.23.213 1.266h.003zm-2.597.81.546 1.16.007-.003zM2.733 2.565l.869.945.01-.01.01-.009zM1.121 4.645l1.128.61.004-.007zM.26 7.083l1.26.244v-.004zM.014 9.649l-1.283-.04v.04zm.013 32.015 1.283-.041v-.003zm.246 2.566 1.26-.24v-.004zm.861 2.438 1.133-.603-.008-.016-.009-.015zm1.613 2.066.888-.926-.01-.01-.01-.009zm2.214 1.514.553-1.158-.008-.004zm2.597.808.216-1.264-.004-.001zm2.733.231.08-1.28-.022-.002h-.021zm142.953.026-.036-1.283h-.004zm2.733-.231-.213-1.265h-.003zm4.825-2.322-.869-.945-.01.01zm1.612-2.066 1.12.626.004-.008.005-.008zm.848-2.438-1.26-.244-.002.011-.002.012zm.259-2.567 1.282.062.001-.031v-.03zm0-1.18-1.282-.038-.001.019v.019zm0-29.666h-1.283v.019l.001.018zm0-1.18h1.283v-.041zm-.259-2.567-1.264.22.003.022.005.021zm-.848-2.438 1.129-.611-.005-.008zm-3.826-3.593.56-1.154-.008-.004-.007-.004zm-2.611-.808-.216 1.264.003.001zm-2.733-.231.036-1.283h-.036zm-1.257-.013-.035 1.283h.035zm-1.476-1.296H13.024v2.566h137.487zm-137.487 0h-1.489v2.566h1.489zm-1.49 0q-.335 0-.648.006c-.21.004-.408.007-.609.007v2.566q.337 0 .649-.007c.21-.003.408-.006.609-.006zm-1.293.013c-.934.026-1.92.08-2.913.249l.432 2.53c.812-.139 1.656-.188 2.553-.214zm-2.91.248a11 11 0 0 0-2.936.916L5.5 2.21a8.4 8.4 0 0 1 2.257-.7zm-2.929.913a9.6 9.6 0 0 0-2.557 1.75l1.776 1.851a7 7 0 0 1 1.872-1.278zM1.865 1.62a9.1 9.1 0 0 0-1.877 2.42l2.265 1.207c.341-.64.798-1.23 1.349-1.737zM-.008 4.035A9.6 9.6 0 0 0-1 6.843l2.521.48c.141-.738.372-1.408.73-2.067zM-1 6.84c-.184.948-.24 1.889-.269 2.77l2.565.081c.027-.839.079-1.618.223-2.363zm-.27 2.81c0 .186-.003.374-.006.573-.004.195-.007.402-.007.608h2.566c0-.18.003-.364.007-.563.003-.196.007-.406.007-.618zm-.013 1.18v1.399h2.566V10.83zm0 1.4v26.856h2.566V12.228zm0 26.856v1.398h2.566v-1.398zm0 1.398c0 .424.014.832.028 1.225l2.565-.088c-.014-.403-.027-.765-.027-1.137zm.028 1.222c.028.88.085 1.82.269 2.769l2.52-.488c-.145-.745-.197-1.524-.224-2.363zm.268 2.766c.183.96.483 1.91 1.006 2.83l2.231-1.267c-.352-.619-.572-1.286-.716-2.044zm.989 2.8a9 9 0 0 0 1.877 2.407l1.736-1.889a6.5 6.5 0 0 1-1.348-1.724zm1.857 2.389a9.6 9.6 0 0 0 2.557 1.75l1.09-2.323a7 7 0 0 1-1.87-1.28zm2.55 1.746c.95.454 1.913.744 2.936.916l.425-2.531a8.4 8.4 0 0 1-2.256-.701zm2.933.915c.992.17 1.994.223 2.913.249l.072-2.565c-.885-.026-1.742-.075-2.553-.214zm2.869.247c.437.027.874.041 1.324.041v-2.566c-.398 0-.78-.012-1.164-.036zm1.324.041h1.489v-2.566h-1.489zm1.49 0H150.51v-2.566H13.024zm137.486 0h1.476v-2.566h-1.476zm1.476 0c.406 0 .863 0 1.297-.014l-.08-2.564c-.387.012-.803.012-1.217.012zm1.293-.013c.934-.026 1.921-.08 2.913-.25l-.432-2.529c-.812.139-1.656.188-2.553.213zm2.91-.249a11.2 11.2 0 0 0 2.943-.912l-1.091-2.323a8.6 8.6 0 0 1-2.278.705zm2.943-.912a9.8 9.8 0 0 0 2.547-1.74l-1.757-1.87a7.2 7.2 0 0 1-1.881 1.287zm2.537-1.73a9.6 9.6 0 0 0 1.864-2.385l-2.239-1.253a7 7 0 0 1-1.362 1.748zm1.873-2.4c.49-.907.809-1.834.983-2.828l-2.528-.442a6.6 6.6 0 0 1-.712 2.048zm.978-2.805c.183-.946.241-1.886.282-2.75l-2.563-.122c-.041.856-.093 1.635-.238 2.384zm.283-2.81v-1.181h-2.566v1.18zm0-1.143c.014-.484.014-.965.014-1.437h-2.566c0 .478 0 .921-.013 1.361zm.014-1.437V12.241h-2.566v26.87zm0-26.869c0-.471 0-.952-.014-1.436l-2.565.075c.013.44.013.883.013 1.361zm-.014-1.398V9.662h-2.566v1.181zm0-1.222c-.028-.879-.085-1.83-.287-2.789l-2.511.527c.154.735.206 1.504.233 2.344zm-.278-2.746a9.2 9.2 0 0 0-.983-2.828l-2.257 1.222c.357.66.585 1.323.712 2.048zm-.988-2.836a9.7 9.7 0 0 0-1.858-2.395l-1.757 1.87a7.2 7.2 0 0 1 1.367 1.762zm-1.858-2.395a10.2 10.2 0 0 0-2.532-1.733l-1.12 2.308a7.7 7.7 0 0 1 1.895 1.296zm-2.547-1.74c-.959-.45-1.919-.74-2.943-.913l-.426 2.531c.808.136 1.543.36 2.278.705zm-2.94-.912c-.992-.17-1.979-.223-2.913-.249l-.072 2.565c.897.025 1.741.075 2.553.213zm-2.949-.25q-.29 0-.609-.006c-.21-.003-.432-.006-.648-.006v2.566q.289 0 .609.006c.21.003.432.007.648.007zm-1.223-.012c-.499-.013-1.022-.013-1.51-.013v2.566c.495 0 .983 0 1.441.013z" mask="url(#a)"/><path fill="#fff" d="M33.853 26.048c-.041-3.528 3.075-5.248 3.225-5.325-1.763-2.412-4.496-2.746-5.453-2.771-2.296-.231-4.524 1.283-5.685 1.283-1.19 0-2.993-1.27-4.934-1.232a7.33 7.33 0 0 0-6.11 3.503c-2.637 4.299-.669 10.612 1.86 14.089 1.27 1.706 2.747 3.606 4.687 3.529 1.9-.077 2.61-1.13 4.893-1.13 2.269 0 2.925 1.13 4.906 1.091 2.037-.026 3.321-1.706 4.538-3.426 1.462-1.95 2.05-3.875 2.077-3.965-.068-.013-3.963-1.411-4.004-5.646M30.122 15.668c1.025-1.194 1.722-2.823 1.517-4.478-1.476.064-3.321.962-4.387 2.13-.943 1.026-1.777 2.72-1.558 4.31 1.654.116 3.362-.782 4.428-1.962M57.81 34.825h-6.464l-1.558 4.311h-2.734L53.177 23.2h2.843l6.122 15.936h-2.788zm-5.795-1.989h5.125l-2.528-6.993h-.068zM75.385 33.324c0 3.606-2.063 5.928-5.166 5.928-1.763 0-3.157-.744-3.895-2.027h-.054v5.748h-2.542V27.512h2.46v1.937h.04c.711-1.245 2.215-2.053 3.937-2.053 3.157 0 5.22 2.322 5.22 5.928m-2.61 0c0-2.348-1.298-3.9-3.266-3.9-1.94 0-3.253 1.578-3.253 3.9 0 2.336 1.312 3.914 3.253 3.914 1.968 0 3.266-1.54 3.266-3.914M88.998 33.324c0 3.606-2.064 5.928-5.166 5.928-1.763 0-3.157-.744-3.895-2.027h-.055v5.748h-2.528V27.512h2.46v1.937h.04c.711-1.245 2.215-2.053 3.937-2.053 3.143 0 5.207 2.322 5.207 5.928m-2.61 0c0-2.348-1.299-3.9-3.267-3.9-1.94 0-3.253 1.578-3.253 3.9 0 2.336 1.312 3.914 3.253 3.914 1.982 0 3.266-1.54 3.266-3.914M98.004 34.697c.191 1.578 1.818 2.617 4.059 2.617 2.146 0 3.676-1.04 3.676-2.463 0-1.232-.929-1.976-3.129-2.49l-2.201-.5c-3.116-.706-4.564-2.079-4.564-4.299 0-2.746 2.555-4.632 6.177-4.632 3.581 0 6.041 1.886 6.123 4.632h-2.57c-.15-1.59-1.558-2.553-3.594-2.553s-3.444.975-3.444 2.386c0 1.13.888 1.784 3.075 2.297l1.872.437c3.485.77 4.934 2.091 4.934 4.414 0 2.977-2.528 4.85-6.546 4.85-3.758 0-6.3-1.822-6.465-4.71h2.597zM113.911 24.765v2.746h2.35v1.886h-2.35V35.8c0 1 .465 1.463 1.503 1.463.26 0 .67-.039.834-.052v1.874c-.287.064-.848.115-1.408.115-2.501 0-3.485-.885-3.485-3.13v-6.66h-1.804v-1.887h1.804v-2.758zM117.615 33.323c0-3.657 2.296-5.953 5.863-5.953 3.581 0 5.863 2.296 5.863 5.953 0 3.67-2.268 5.954-5.863 5.954-3.58 0-5.863-2.284-5.863-5.954m9.157 0c0-2.502-1.23-3.99-3.28-3.99s-3.28 1.488-3.28 3.99c0 2.515 1.216 3.991 3.28 3.991s3.28-1.476 3.28-3.99M131.459 27.511h2.419v1.976h.055c.383-1.309 1.517-2.104 2.979-2.104.369 0 .67.051.875.09v2.232c-.205-.077-.642-.14-1.134-.14-1.64 0-2.652 1.038-2.652 2.668v6.89h-2.542zM149.485 35.723c-.342 2.104-2.528 3.554-5.33 3.554-3.594 0-5.836-2.258-5.836-5.902s2.242-6.005 5.727-6.005c3.416 0 5.576 2.207 5.576 5.735v.822h-8.733v.14c0 1.99 1.325 3.285 3.334 3.285 1.408 0 2.515-.628 2.857-1.63zm-8.583-3.477h6.191c-.054-1.784-1.271-2.952-3.034-2.952-1.749.013-3.02 1.206-3.157 2.952M51.7 11.202c2.42 0 3.841 1.399 3.841 3.798 0 2.451-1.407 3.85-3.84 3.85h-2.952v-7.648zm-1.68 6.57h1.53c1.709 0 2.693-1.001 2.693-2.759 0-1.732-.998-2.733-2.693-2.733h-1.53zM56.963 15.963c0-1.86 1.107-3.003 2.897-3.003s2.897 1.13 2.897 3.003-1.107 3.003-2.897 3.003-2.897-1.13-2.897-3.003m4.55 0c0-1.257-.6-1.989-1.653-1.989s-1.654.732-1.654 1.989.588 1.989 1.654 1.989 1.654-.732 1.654-1.989M70.479 18.863H69.22l-1.27-4.26h-.096l-1.271 4.26H65.34l-1.695-5.775h1.23l1.108 4.414h.095l1.271-4.414h1.162l1.27 4.414h.096l1.094-4.414h1.216zM73.595 13.076h1.176V14h.095c.3-.642.916-1.027 1.832-1.027 1.366 0 2.132.77 2.132 2.143v3.747h-1.217V15.41c0-.924-.423-1.386-1.325-1.386s-1.476.565-1.476 1.463v3.375h-1.217zM80.756 10.83h1.217v8.033h-1.217zM83.668 15.963c0-1.86 1.107-3.003 2.897-3.003s2.898 1.13 2.898 3.003-1.107 3.003-2.898 3.003c-1.804 0-2.897-1.13-2.897-3.003m4.55 0c0-1.257-.6-1.989-1.653-1.989s-1.653.732-1.653 1.989.587 1.989 1.653 1.989c1.053 0 1.654-.732 1.654-1.989M90.747 17.22c0-1.039.82-1.642 2.282-1.719l1.668-.09v-.5c0-.616-.424-.95-1.258-.95-.683 0-1.148.231-1.284.642h-1.176c.123-.988 1.12-1.63 2.515-1.63 1.544 0 2.419.719 2.419 1.938v3.952h-1.175v-.808h-.096c-.37.577-1.039.91-1.845.91-1.19-.012-2.05-.68-2.05-1.745m3.963-.487v-.488l-1.503.09c-.847.051-1.23.32-1.23.834 0 .526.478.821 1.134.821.916 0 1.6-.539 1.6-1.257M97.511 15.963c0-1.822.998-2.977 2.556-2.977.847 0 1.558.372 1.886 1.013h.096V10.83h1.216v8.033h-1.175v-.911h-.096c-.369.628-1.08 1.013-1.927 1.013-1.572-.013-2.556-1.167-2.556-3.002m1.258 0c0 1.232.615 1.963 1.64 1.963s1.653-.744 1.653-1.963c0-1.206-.642-1.963-1.653-1.963-1.025.012-1.64.757-1.64 1.963M108.281 15.963c0-1.86 1.107-3.003 2.897-3.003s2.897 1.13 2.897 3.003-1.107 3.003-2.897 3.003-2.897-1.13-2.897-3.003m4.551 0c0-1.257-.602-1.989-1.654-1.989s-1.654.732-1.654 1.989.588 1.989 1.654 1.989c1.052 0 1.654-.732 1.654-1.989M115.716 13.076h1.175V14h.096c.3-.642.915-1.027 1.831-1.027 1.367 0 2.132.77 2.132 2.143v3.747h-1.216V15.41c0-.924-.424-1.386-1.326-1.386s-1.476.565-1.476 1.463v3.375h-1.216zM127.81 11.638v1.463h1.339v.962h-1.339v2.977c0 .603.26.873.875.873.191 0 .287-.013.464-.026v.95c-.191.025-.423.064-.656.064-1.353 0-1.886-.45-1.886-1.566v-3.259h-.97v-.962h.97v-1.476zM130.79 10.83h1.202v3.182h.096c.301-.641.943-1.04 1.872-1.04 1.312 0 2.119.784 2.119 2.157v3.734h-1.217V15.41c0-.924-.451-1.386-1.312-1.386-.997 0-1.544.59-1.544 1.463v3.375h-1.216zM143.171 17.297c-.273 1.04-1.257 1.668-2.665 1.668-1.763 0-2.842-1.129-2.842-2.976 0-1.848 1.107-3.016 2.842-3.016 1.709 0 2.747 1.104 2.747 2.913v.398h-4.346v.064c.041 1.014.67 1.655 1.64 1.655.738 0 1.244-.244 1.463-.706zm-4.264-1.86h3.103c-.028-.911-.615-1.501-1.517-1.501s-1.517.603-1.586 1.5"/></svg>