<svg xmlns="http://www.w3.org/2000/svg" width="185" height="52" fill="none"><path fill="#fff" d="M178.167 1.027c3.171 0 5.74 2.412 5.74 5.39V44.91c0 2.977-2.569 5.389-5.74 5.389H7.334c-3.17 0-5.74-2.412-5.74-5.39V6.417c0-2.977 2.57-5.389 5.74-5.389zm0-1.027H7.334C3.575 0 .5 2.888.5 6.416v38.495c0 3.528 3.075 6.415 6.834 6.415h170.833c3.758 0 6.833-2.887 6.833-6.415V6.416C185 2.888 181.925 0 178.167 0"/><path fill="#fff" stroke="#fff" stroke-miterlimit="10" stroke-width=".257" d="M65.308 13.14c0 1.079-.342 1.938-1.025 2.567-.766.757-1.777 1.142-3.007 1.142-1.189 0-2.187-.385-3.02-1.155s-1.244-1.732-1.244-2.861c0-1.142.41-2.092 1.244-2.862s1.831-1.155 3.02-1.155a4.4 4.4 0 0 1 1.681.321c.533.218.957.5 1.285.86l-.725.68c-.546-.603-1.284-.911-2.24-.911-.862 0-1.614.282-2.242.86-.629.564-.943 1.309-.943 2.22 0 .91.314 1.655.943 2.22.629.564 1.38.859 2.241.859.916 0 1.681-.282 2.296-.86.396-.372.629-.898.683-1.565h-2.979v-.937h3.977c.028.205.055.398.055.578ZM71.608 9.933h-3.731v2.438h3.362v.924h-3.362v2.438h3.73v.95h-4.782v-7.7h4.783zM76.05 16.682h-1.053v-6.75H72.7v-.949h5.63v.95h-2.295v6.75zM82.418 16.682V8.983h1.052v7.7zM88.145 16.682h-1.052v-6.75h-2.296v-.949h5.63v.95h-2.296v6.75zM101.1 15.68c-.806.784-1.804 1.168-3.006 1.168-1.203 0-2.2-.384-3.007-1.167s-1.203-1.732-1.203-2.849c0-1.116.397-2.078 1.203-2.848.806-.783 1.804-1.168 3.007-1.168 1.189 0 2.186.385 3.006 1.168.807.782 1.217 1.732 1.217 2.848-.014 1.13-.41 2.079-1.217 2.849Zm-5.234-.64c.601.577 1.353.859 2.228.859.874 0 1.626-.282 2.227-.86.602-.577.916-1.309.916-2.207s-.301-1.63-.916-2.207c-.601-.577-1.353-.872-2.227-.872-.875 0-1.627.282-2.228.86-.601.59-.916 1.321-.916 2.22 0 .897.315 1.629.916 2.206ZM103.793 16.682V8.983h1.285l3.99 5.993h.041l-.041-1.489V8.983h1.053v7.7h-1.094l-4.168-6.275h-.041l.041 1.488v4.786z"/><path fill="#fff" d="M93.625 27.909c-3.212 0-5.835 2.297-5.835 5.453 0 3.144 2.623 5.453 5.835 5.453s5.836-2.31 5.836-5.453c0-3.156-2.624-5.453-5.836-5.453m0 8.764c-1.763 0-3.28-1.36-3.28-3.31 0-1.964 1.517-3.311 3.28-3.311s3.28 1.347 3.28 3.31c0 1.95-1.53 3.31-3.28 3.31m-12.737-8.764c-3.212 0-5.836 2.297-5.836 5.453 0 3.144 2.624 5.453 5.836 5.453s5.835-2.31 5.835-5.453c0-3.156-2.623-5.453-5.835-5.453m0 8.764c-1.763 0-3.28-1.36-3.28-3.31 0-1.964 1.517-3.311 3.28-3.311s3.28 1.347 3.28 3.31c0 1.95-1.517 3.31-3.28 3.31M65.745 29.59v2.31h5.904c-.177 1.295-.642 2.258-1.34 2.912-.86.808-2.2 1.694-4.55 1.694-3.635 0-6.478-2.746-6.478-6.16 0-3.413 2.843-6.158 6.478-6.158 1.954 0 3.39.718 4.442 1.655l1.735-1.63c-1.476-1.321-3.43-2.335-6.19-2.335-4.975 0-9.157 3.798-9.157 8.482 0 4.67 4.182 8.481 9.156 8.481 2.693 0 4.715-.821 6.3-2.374 1.627-1.527 2.133-3.682 2.133-5.415 0-.538-.041-1.039-.137-1.45h-8.296zm61.924 1.796c-.479-1.219-1.955-3.477-4.975-3.477-2.993 0-5.48 2.207-5.48 5.453 0 3.054 2.46 5.453 5.767 5.453 2.665 0 4.209-1.526 4.838-2.412l-1.982-1.245c-.656.911-1.558 1.515-2.856 1.515s-2.228-.565-2.815-1.656l7.776-3.015zm-7.927 1.822c-.068-2.104 1.736-3.182 3.034-3.182 1.011 0 1.872.475 2.159 1.155zm-6.314 5.287h2.556v-16.04h-2.556zm-4.182-9.367h-.096c-.574-.642-1.667-1.22-3.061-1.22-2.911 0-5.576 2.4-5.576 5.48 0 3.054 2.665 5.44 5.576 5.44 1.38 0 2.487-.577 3.061-1.244h.082v.782c0 2.092-1.189 3.208-3.102 3.208-1.558 0-2.528-1.052-2.925-1.937l-2.227.872c.642 1.45 2.337 3.22 5.152 3.22 2.993 0 5.521-1.654 5.521-5.683v-9.804h-2.419v.886zm-2.938 7.545c-1.763 0-3.239-1.386-3.239-3.285 0-1.925 1.476-3.324 3.239-3.324 1.735 0 3.102 1.412 3.102 3.324.014 1.899-1.353 3.285-3.102 3.285m33.333-14.218h-6.109v16.04h2.555v-6.082h3.567c2.829 0 5.604-1.925 5.604-4.979s-2.802-4.979-5.617-4.979m.054 7.725h-3.621v-5.505h3.621c1.914 0 2.993 1.489 2.993 2.746 0 1.258-1.079 2.759-2.993 2.759m15.772-2.297c-1.845 0-3.759.77-4.551 2.45l2.268.886c.479-.885 1.381-1.18 2.324-1.18 1.325 0 2.665.744 2.678 2.066v.166c-.464-.243-1.448-.616-2.665-.616-2.446 0-4.92 1.258-4.92 3.606 0 2.143 1.996 3.529 4.237 3.529 1.708 0 2.665-.719 3.253-1.566h.082v1.245h2.46v-6.146c.013-2.849-2.255-4.44-5.166-4.44m-.315 8.79c-.833 0-1.995-.398-1.995-1.36 0-1.232 1.449-1.707 2.706-1.707 1.121 0 1.654.23 2.323.539-.191 1.475-1.558 2.528-3.034 2.528m14.46-8.443-2.925 6.954h-.082l-3.034-6.954h-2.747l4.551 9.726-2.597 5.402h2.665l7.011-15.128zm-22.96 10.265h2.555v-16.04h-2.555z"/><path fill="url(#a)" d="M14.769 9.675c-.397.398-.63 1.014-.63 1.797v28.383c0 .796.233 1.411.63 1.796l.095.09 16.933-15.885v-.385L14.864 9.585z"/><path fill="url(#b)" d="m37.444 31.155-5.645-5.3v-.384l5.645-5.3.122.064 6.683 3.568c1.914 1.013 1.914 2.682 0 3.708l-6.683 3.567z"/><path fill="url(#c)" d="m37.566 31.091-5.768-5.427L14.77 41.652c.628.628 1.667.705 2.842.077z"/><path fill="url(#d)" d="M37.565 20.249 17.598 9.599c-1.175-.63-2.214-.552-2.842.076l17.042 15.988z"/><path fill="#000" d="M37.441 30.963 17.597 41.549c-1.107.59-2.104.552-2.733.013l-.095.09.095.09c.643.538 1.627.577 2.733-.014l19.967-10.65z" opacity=".2"/><path fill="#000" d="M14.767 41.472c-.396-.398-.628-1.014-.628-1.797v.193c0 .795.232 1.411.628 1.796l.096-.09zM44.249 27.332l-6.82 3.63.123.116 6.683-3.567c.957-.513 1.435-1.18 1.435-1.847-.068.603-.547 1.206-1.421 1.668" opacity=".12"/><path fill="#fff" d="m17.598 9.779 26.65 14.217c.861.462 1.353 1.053 1.435 1.668 0-.667-.478-1.347-1.435-1.847L17.598 9.599c-1.913-1.013-3.471-.166-3.471 1.887v.192c0-2.066 1.572-2.913 3.471-1.899" opacity=".25"/><defs><linearGradient id="a" x1="30.293" x2="8.802" y1="11.176" y2="34.067" gradientUnits="userSpaceOnUse"><stop stop-color="#00A0FF"/><stop offset=".007" stop-color="#00A1FF"/><stop offset=".26" stop-color="#00BEFF"/><stop offset=".512" stop-color="#00D2FF"/><stop offset=".76" stop-color="#00DFFF"/><stop offset="1" stop-color="#00E3FF"/></linearGradient><linearGradient id="b" x1="46.743" x2="13.673" y1="25.665" y2="25.665" gradientUnits="userSpaceOnUse"><stop stop-color="#FFE000"/><stop offset=".409" stop-color="#FFBD00"/><stop offset=".775" stop-color="orange"/><stop offset="1" stop-color="#FF9C00"/></linearGradient><linearGradient id="c" x1="34.432" x2="5.287" y1="28.61" y2="59.651" gradientUnits="userSpaceOnUse"><stop stop-color="#FF3A44"/><stop offset="1" stop-color="#C31162"/></linearGradient><linearGradient id="d" x1="10.474" x2="23.488" y1=".227" y2="14.088" gradientUnits="userSpaceOnUse"><stop stop-color="#32A071"/><stop offset=".069" stop-color="#2DA771"/><stop offset=".476" stop-color="#15CF74"/><stop offset=".801" stop-color="#06E775"/><stop offset="1" stop-color="#00F076"/></linearGradient></defs></svg>