<svg width="84" height="85" viewBox="0 0 84 85" fill="none" xmlns="http://www.w3.org/2000/svg">
<path d="M42 0.857424C35.938 0.857423 31.4252 0.85775 27.8217 1.07838C24.2241 1.29866 21.582 1.73654 19.2581 2.5903C11.4756 5.44944 5.34202 11.583 2.48288 19.3655C1.62912 21.6894 1.19123 24.3315 0.970957 27.9291C0.750325 31.5326 0.749998 36.0454 0.749998 42.1074C0.749998 48.1694 0.750325 52.6823 0.970956 56.2857C1.19123 59.8833 1.62912 62.5254 2.48288 64.8493C5.34202 72.6318 11.4756 78.7654 19.2581 81.6245C21.582 82.4783 24.2241 82.9162 27.8217 83.1365C31.4251 83.3571 35.938 83.3574 42 83.3574C48.062 83.3574 52.5748 83.3571 56.1783 83.1365C59.7759 82.9162 62.418 82.4783 64.7419 81.6245C72.5244 78.7654 78.658 72.6318 81.5171 64.8493C82.3709 62.5254 82.8088 59.8833 83.029 56.2857C83.2497 52.6823 83.25 48.1694 83.25 42.1074C83.25 36.0454 83.2497 31.5326 83.029 27.9291C82.8088 24.3315 82.3709 21.6894 81.5171 19.3655C78.658 11.583 72.5244 5.44944 64.7419 2.5903C62.418 1.73654 59.7759 1.29866 56.1783 1.07838C52.5748 0.857751 48.062 0.857424 42 0.857424Z" stroke="url(#paint0_linear_1_288)" stroke-width="1.5"/>
<path d="M41.25 60.1074C41.25 60.5216 41.5858 60.8574 42 60.8574C42.4142 60.8574 42.75 60.5216 42.75 60.1074L41.25 60.1074ZM42.5303 24.5771C42.2374 24.2842 41.7626 24.2842 41.4697 24.5771L36.6967 29.3501C36.4038 29.643 36.4038 30.1178 36.6967 30.4107C36.9896 30.7036 37.4645 30.7036 37.7574 30.4107L42 26.1681L46.2426 30.4107C46.5355 30.7036 47.0104 30.7036 47.3033 30.4107C47.5962 30.1178 47.5962 29.643 47.3033 29.3501L42.5303 24.5771ZM42.75 60.1074L42.75 25.1074L41.25 25.1074L41.25 60.1074L42.75 60.1074Z" fill="url(#paint1_linear_1_288)"/>
<defs>
<linearGradient id="paint0_linear_1_288" x1="54.9419" y1="84.1074" x2="58.0642" y2="20.2358" gradientUnits="userSpaceOnUse">
<stop stop-color="#237249"/>
<stop offset="1" stop-color="#35C66B"/>
</linearGradient>
<linearGradient id="paint1_linear_1_288" x1="42.6541" y1="25.1074" x2="54.2758" y2="31.8999" gradientUnits="userSpaceOnUse">
<stop stop-color="#237249"/>
<stop offset="1" stop-color="#35C66B"/>
</linearGradient>
</defs>
</svg>
