<svg width="134" height="133" viewBox="0 0 134 133" fill="none" xmlns="http://www.w3.org/2000/svg">
<path d="M58.9269 4.93802C62.4759 -1.55015 71.7945 -1.55015 75.3435 4.93802V4.93802C77.9761 9.75086 84.1656 11.2764 88.7333 8.23831V8.23831C94.891 4.14263 103.142 8.47319 103.27 15.8675V15.8675C103.364 21.3525 108.136 25.5797 113.592 25.0123V25.0123C120.948 24.2474 126.241 31.9164 122.918 38.5229V38.5229C120.452 43.4235 122.713 49.384 127.808 51.4173V51.4173C134.676 54.1584 135.8 63.409 129.787 67.7142V67.7142C125.326 70.9077 124.558 77.236 128.124 81.4042V81.4042C132.932 87.0233 129.628 95.7363 122.303 96.754V96.754C116.869 97.5089 113.248 102.755 114.469 108.103V108.103C116.115 115.313 109.14 121.493 102.181 118.99V118.99C97.0189 117.133 91.3744 120.095 89.9701 125.398V125.398C88.0769 132.547 79.0291 134.777 74.0305 129.327V129.327C70.3226 125.284 63.9478 125.284 60.24 129.327V129.327C55.2414 134.777 46.1935 132.547 44.3004 125.398V125.398C42.8961 120.095 37.2515 117.133 32.0895 118.99V118.99C25.1305 121.493 18.1555 115.313 19.8015 108.103V108.103C21.0224 102.755 17.4012 97.5089 11.9675 96.754V96.754C4.6425 95.7363 1.33809 87.0233 6.14614 81.4042V81.4042C9.71269 77.236 8.9443 70.9077 4.48387 67.7142V67.7142C-1.52921 63.409 -0.405975 54.1584 6.46268 51.4173V51.4173C11.5578 49.384 13.8183 43.4235 11.3529 38.5229V38.5229C8.02927 31.9164 13.3228 24.2474 20.6786 25.0123V25.0123C26.1349 25.5797 30.9065 21.3525 31.0009 15.8675V15.8675C31.1282 8.47319 39.3794 4.14263 45.5371 8.23831V8.23831C50.1048 11.2764 56.2943 9.75086 58.9269 4.93802V4.93802Z" fill="url(#paint0_linear_1_102)"/>
<defs>
<linearGradient id="paint0_linear_1_102" x1="143.694" y1="89.3511" x2="27.2711" y2="95.0842" gradientUnits="userSpaceOnUse">
<stop stop-color="#237249"/>
<stop offset="1" stop-color="#35C66B"/>
</linearGradient>
</defs>
</svg>
