<svg width="20" height="15" viewBox="0 0 20 15" fill="none" xmlns="http://www.w3.org/2000/svg">
<path d="M17.4979 3.72808C17.4979 3.86142 17.4979 4.06142 17.4979 4.19475C17.4979 9.19475 13.6979 14.9281 6.76459 14.9281C4.63125 14.9281 2.63125 14.3281 0.964584 13.2614C1.23125 13.2614 1.56458 13.3281 1.89792 13.3281C3.69792 13.3281 5.29792 12.7281 6.56458 11.7281C4.89792 11.7281 3.49792 10.5948 3.03125 9.12809C3.23125 9.19475 3.49792 9.19475 3.76458 9.19475C4.09792 9.19475 4.43125 9.12809 4.76458 9.06142C3.03125 8.66142 1.69792 7.12808 1.69792 5.32808C1.69792 5.32808 1.69792 5.32808 1.69792 5.26142C2.23125 5.52808 2.76458 5.72808 3.43125 5.72808C2.43125 5.06142 1.76458 3.92808 1.76458 2.59475C1.76458 1.92808 1.96458 1.26142 2.29792 0.728084C4.16458 2.99475 6.96459 4.52808 10.0979 4.66142C10.0313 4.39475 10.0313 4.12808 10.0313 3.79475C10.0313 1.72808 11.6979 -0.00524902 13.8313 -0.00524902C14.8979 -0.00524902 15.8979 0.461418 16.5646 1.19475C17.4313 0.994751 18.2313 0.728084 18.9646 0.261418C18.6979 1.12808 18.0979 1.86142 17.2979 2.32808C17.9646 2.26142 18.6979 2.06142 19.3646 1.79475C18.8313 2.52808 18.2313 3.19475 17.4979 3.72808Z" fill="#D5D5E0"/>
</svg>
