<svg width="268" height="268" viewBox="0 0 268 268" fill="none" xmlns="http://www.w3.org/2000/svg">
<g clip-path="url(#clip0_547_810)">
<path d="M135.401 217.657C181.618 216.755 218.637 178.475 217.788 132.261C216.988 85.8295 178.549 48.8679 132.337 49.7695C85.9598 50.6733 49.1062 88.9481 49.9029 135.327C50.7467 181.542 88.9721 218.453 135.401 217.657ZM62.5123 135.084C61.8321 95.6744 93.1521 63.1499 132.563 62.3798C171.835 61.6135 204.5 93.0223 205.177 132.478C205.894 171.75 174.441 204.278 135.169 205.044C95.7125 205.721 63.2351 174.355 62.5123 135.084Z" fill="url(#paint0_radial_547_810)"/>
<path d="M135.401 217.657C181.618 216.755 218.637 178.475 217.788 132.261C216.988 85.8295 178.549 48.8679 132.337 49.7695C85.9598 50.6733 49.1062 88.9481 49.9029 135.327C50.7467 181.542 88.9721 218.453 135.401 217.657ZM62.5123 135.084C61.8321 95.6744 93.1521 63.1499 132.563 62.3798C171.835 61.6135 204.5 93.0223 205.177 132.478C205.894 171.75 174.441 204.278 135.169 205.044C95.7125 205.721 63.2351 174.355 62.5123 135.084Z" fill="url(#paint1_radial_547_810)"/>
<path d="M135.401 217.657C181.618 216.755 218.637 178.475 217.788 132.261C216.988 85.8295 178.549 48.8679 132.337 49.7695C85.9598 50.6733 49.1062 88.9481 49.9029 135.327C50.7467 181.542 88.9721 218.453 135.401 217.657ZM62.5123 135.084C61.8321 95.6744 93.1521 63.1499 132.563 62.3798C171.835 61.6135 204.5 93.0223 205.177 132.478C205.894 171.75 174.441 204.278 135.169 205.044C95.7125 205.721 63.2351 174.355 62.5123 135.084Z" fill="white" fill-opacity="0.15"/>
<path d="M135.401 217.657C181.618 216.755 218.637 178.475 217.788 132.261C216.988 85.8295 178.549 48.8679 132.337 49.7695C85.9598 50.6733 49.1062 88.9481 49.9029 135.327C50.7467 181.542 88.9721 218.453 135.401 217.657ZM62.5123 135.084C61.8321 95.6744 93.1521 63.1499 132.563 62.3798C171.835 61.6135 204.5 93.0223 205.177 132.478C205.894 171.75 174.441 204.278 135.169 205.044C95.7125 205.721 63.2351 174.355 62.5123 135.084Z" fill="url(#paint2_radial_547_810)" fill-opacity="0.25"/>
<path d="M135.401 217.657C181.618 216.755 218.637 178.475 217.788 132.261C216.988 85.8295 178.549 48.8679 132.337 49.7695C85.9598 50.6733 49.1062 88.9481 49.9029 135.327C50.7467 181.542 88.9721 218.453 135.401 217.657ZM62.5123 135.084C61.8321 95.6744 93.1521 63.1499 132.563 62.3798C171.835 61.6135 204.5 93.0223 205.177 132.478C205.894 171.75 174.441 204.278 135.169 205.044C95.7125 205.721 63.2351 174.355 62.5123 135.084Z" fill="url(#paint3_radial_547_810)" fill-opacity="0.45"/>
<g filter="url(#filter0_i_547_810)">
<path d="M255.412 110.564L239.75 105.308C237.323 104.542 235.414 102.692 234.707 100.423C232.594 94.2807 230.354 88.6745 227.317 83.3533C226.074 81.0907 226.033 78.5405 226.935 76.2429L234.08 61.2255C235.37 57.8458 234.64 54.2314 232.32 51.9835L212.544 32.8318C210.223 30.4536 206.452 29.9769 203.392 31.5019L188.47 38.99C186.206 39.9665 183.656 40.0096 181.355 38.9746C175.941 36.2402 170.127 33.9135 164.324 32.1278C161.757 31.2303 159.852 29.5156 159.01 27.1088L153.253 11.6279C151.99 8.29148 148.872 6.19257 145.379 6.24981L118.262 6.68161C114.639 6.73941 111.854 8.93177 110.701 12.3077L105.447 27.9659C104.679 30.3989 102.692 32.1759 100.294 33.1531C94.5505 35.1246 88.8155 37.6346 83.4907 40.5388C81.3604 41.6448 78.6772 41.6887 76.3795 40.7838L61.2269 33.779C57.9825 32.3525 54.3645 32.9488 51.8511 35.4061L32.9712 55.1753C30.5903 57.4987 30.1098 61.1344 31.5034 64.4673L39.1295 79.2489C40.1062 81.5187 40.1464 84.0688 38.9752 86.368C35.9716 91.7865 34.0493 97.4594 32.1327 103.665C31.3639 105.959 29.5162 107.871 27.2455 108.712L11.7644 114.466C8.28889 115.727 6.19041 118.854 6.2504 122.344L6.6822 149.46C6.73916 152.948 8.93525 155.868 12.4414 157.019L28.1027 162.278C30.7989 163.036 32.4457 165.027 33.423 167.427C35.2685 173.438 37.7684 178.907 40.5356 184.096C41.7858 186.628 41.8254 189.045 40.9279 191.612L34.0494 206.625C32.4884 209.603 33.0861 213.488 35.6721 215.731L55.0459 234.758C57.6354 237.132 61.268 237.609 64.4649 236.217L79.1171 228.73C81.6525 227.616 84.3358 227.575 86.5054 228.88C92.0556 231.614 97.7336 233.938 103.535 235.591C105.962 236.359 108.001 238.073 108.989 240.742L114.6 255.958C115.863 259.294 118.711 261.264 122.341 261.206L149.457 260.772C152.945 260.717 156.004 258.651 157.158 255.275L162.28 239.89C163.177 237.189 165.025 235.411 167.565 234.566C173.313 232.73 179.045 230.22 184.372 227.313C186.498 225.938 189.181 225.894 191.616 226.928L206.633 233.94C209.743 235.234 213.489 234.637 215.733 232.184L234.888 212.543C237.139 210.22 237.745 206.318 236.357 203.385L228.731 188.606C227.753 186.067 227.713 183.65 228.88 181.081C231.479 175.804 233.81 170.259 235.461 164.191C236.226 161.764 237.937 159.72 240.613 158.874L256.094 153.12C259.298 151.86 261.53 148.869 261.473 145.381L261.041 118.265C260.987 114.774 258.654 111.718 255.412 110.564ZM217.783 132.101C218.58 178.481 181.726 216.756 135.349 217.659C89.137 218.561 50.6976 181.599 49.8983 135.168C49.0487 88.9536 86.0673 50.6737 132.285 49.7718C178.714 48.9755 216.939 85.8867 217.783 132.101Z" fill="url(#paint4_radial_547_810)"/>
<path d="M255.412 110.564L239.75 105.308C237.323 104.542 235.414 102.692 234.707 100.423C232.594 94.2807 230.354 88.6745 227.317 83.3533C226.074 81.0907 226.033 78.5405 226.935 76.2429L234.08 61.2255C235.37 57.8458 234.64 54.2314 232.32 51.9835L212.544 32.8318C210.223 30.4536 206.452 29.9769 203.392 31.5019L188.47 38.99C186.206 39.9665 183.656 40.0096 181.355 38.9746C175.941 36.2402 170.127 33.9135 164.324 32.1278C161.757 31.2303 159.852 29.5156 159.01 27.1088L153.253 11.6279C151.99 8.29148 148.872 6.19257 145.379 6.24981L118.262 6.68161C114.639 6.73941 111.854 8.93177 110.701 12.3077L105.447 27.9659C104.679 30.3989 102.692 32.1759 100.294 33.1531C94.5505 35.1246 88.8155 37.6346 83.4907 40.5388C81.3604 41.6448 78.6772 41.6887 76.3795 40.7838L61.2269 33.779C57.9825 32.3525 54.3645 32.9488 51.8511 35.4061L32.9712 55.1753C30.5903 57.4987 30.1098 61.1344 31.5034 64.4673L39.1295 79.2489C40.1062 81.5187 40.1464 84.0688 38.9752 86.368C35.9716 91.7865 34.0493 97.4594 32.1327 103.665C31.3639 105.959 29.5162 107.871 27.2455 108.712L11.7644 114.466C8.28889 115.727 6.19041 118.854 6.2504 122.344L6.6822 149.46C6.73916 152.948 8.93525 155.868 12.4414 157.019L28.1027 162.278C30.7989 163.036 32.4457 165.027 33.423 167.427C35.2685 173.438 37.7684 178.907 40.5356 184.096C41.7858 186.628 41.8254 189.045 40.9279 191.612L34.0494 206.625C32.4884 209.603 33.0861 213.488 35.6721 215.731L55.0459 234.758C57.6354 237.132 61.268 237.609 64.4649 236.217L79.1171 228.73C81.6525 227.616 84.3358 227.575 86.5054 228.88C92.0556 231.614 97.7336 233.938 103.535 235.591C105.962 236.359 108.001 238.073 108.989 240.742L114.6 255.958C115.863 259.294 118.711 261.264 122.341 261.206L149.457 260.772C152.945 260.717 156.004 258.651 157.158 255.275L162.28 239.89C163.177 237.189 165.025 235.411 167.565 234.566C173.313 232.73 179.045 230.22 184.372 227.313C186.498 225.938 189.181 225.894 191.616 226.928L206.633 233.94C209.743 235.234 213.489 234.637 215.733 232.184L234.888 212.543C237.139 210.22 237.745 206.318 236.357 203.385L228.731 188.606C227.753 186.067 227.713 183.65 228.88 181.081C231.479 175.804 233.81 170.259 235.461 164.191C236.226 161.764 237.937 159.72 240.613 158.874L256.094 153.12C259.298 151.86 261.53 148.869 261.473 145.381L261.041 118.265C260.987 114.774 258.654 111.718 255.412 110.564ZM217.783 132.101C218.58 178.481 181.726 216.756 135.349 217.659C89.137 218.561 50.6976 181.599 49.8983 135.168C49.0487 88.9536 86.0673 50.6737 132.285 49.7718C178.714 48.9755 216.939 85.8867 217.783 132.101Z" fill="white" fill-opacity="0.15"/>
<path d="M255.412 110.564L239.75 105.308C237.323 104.542 235.414 102.692 234.707 100.423C232.594 94.2807 230.354 88.6745 227.317 83.3533C226.074 81.0907 226.033 78.5405 226.935 76.2429L234.08 61.2255C235.37 57.8458 234.64 54.2314 232.32 51.9835L212.544 32.8318C210.223 30.4536 206.452 29.9769 203.392 31.5019L188.47 38.99C186.206 39.9665 183.656 40.0096 181.355 38.9746C175.941 36.2402 170.127 33.9135 164.324 32.1278C161.757 31.2303 159.852 29.5156 159.01 27.1088L153.253 11.6279C151.99 8.29148 148.872 6.19257 145.379 6.24981L118.262 6.68161C114.639 6.73941 111.854 8.93177 110.701 12.3077L105.447 27.9659C104.679 30.3989 102.692 32.1759 100.294 33.1531C94.5505 35.1246 88.8155 37.6346 83.4907 40.5388C81.3604 41.6448 78.6772 41.6887 76.3795 40.7838L61.2269 33.779C57.9825 32.3525 54.3645 32.9488 51.8511 35.4061L32.9712 55.1753C30.5903 57.4987 30.1098 61.1344 31.5034 64.4673L39.1295 79.2489C40.1062 81.5187 40.1464 84.0688 38.9752 86.368C35.9716 91.7865 34.0493 97.4594 32.1327 103.665C31.3639 105.959 29.5162 107.871 27.2455 108.712L11.7644 114.466C8.28889 115.727 6.19041 118.854 6.2504 122.344L6.6822 149.46C6.73916 152.948 8.93525 155.868 12.4414 157.019L28.1027 162.278C30.7989 163.036 32.4457 165.027 33.423 167.427C35.2685 173.438 37.7684 178.907 40.5356 184.096C41.7858 186.628 41.8254 189.045 40.9279 191.612L34.0494 206.625C32.4884 209.603 33.0861 213.488 35.6721 215.731L55.0459 234.758C57.6354 237.132 61.268 237.609 64.4649 236.217L79.1171 228.73C81.6525 227.616 84.3358 227.575 86.5054 228.88C92.0556 231.614 97.7336 233.938 103.535 235.591C105.962 236.359 108.001 238.073 108.989 240.742L114.6 255.958C115.863 259.294 118.711 261.264 122.341 261.206L149.457 260.772C152.945 260.717 156.004 258.651 157.158 255.275L162.28 239.89C163.177 237.189 165.025 235.411 167.565 234.566C173.313 232.73 179.045 230.22 184.372 227.313C186.498 225.938 189.181 225.894 191.616 226.928L206.633 233.94C209.743 235.234 213.489 234.637 215.733 232.184L234.888 212.543C237.139 210.22 237.745 206.318 236.357 203.385L228.731 188.606C227.753 186.067 227.713 183.65 228.88 181.081C231.479 175.804 233.81 170.259 235.461 164.191C236.226 161.764 237.937 159.72 240.613 158.874L256.094 153.12C259.298 151.86 261.53 148.869 261.473 145.381L261.041 118.265C260.987 114.774 258.654 111.718 255.412 110.564ZM217.783 132.101C218.58 178.481 181.726 216.756 135.349 217.659C89.137 218.561 50.6976 181.599 49.8983 135.168C49.0487 88.9536 86.0673 50.6737 132.285 49.7718C178.714 48.9755 216.939 85.8867 217.783 132.101Z" fill="url(#paint5_radial_547_810)" fill-opacity="0.25"/>
<path d="M255.412 110.564L239.75 105.308C237.323 104.542 235.414 102.692 234.707 100.423C232.594 94.2807 230.354 88.6745 227.317 83.3533C226.074 81.0907 226.033 78.5405 226.935 76.2429L234.08 61.2255C235.37 57.8458 234.64 54.2314 232.32 51.9835L212.544 32.8318C210.223 30.4536 206.452 29.9769 203.392 31.5019L188.47 38.99C186.206 39.9665 183.656 40.0096 181.355 38.9746C175.941 36.2402 170.127 33.9135 164.324 32.1278C161.757 31.2303 159.852 29.5156 159.01 27.1088L153.253 11.6279C151.99 8.29148 148.872 6.19257 145.379 6.24981L118.262 6.68161C114.639 6.73941 111.854 8.93177 110.701 12.3077L105.447 27.9659C104.679 30.3989 102.692 32.1759 100.294 33.1531C94.5505 35.1246 88.8155 37.6346 83.4907 40.5388C81.3604 41.6448 78.6772 41.6887 76.3795 40.7838L61.2269 33.779C57.9825 32.3525 54.3645 32.9488 51.8511 35.4061L32.9712 55.1753C30.5903 57.4987 30.1098 61.1344 31.5034 64.4673L39.1295 79.2489C40.1062 81.5187 40.1464 84.0688 38.9752 86.368C35.9716 91.7865 34.0493 97.4594 32.1327 103.665C31.3639 105.959 29.5162 107.871 27.2455 108.712L11.7644 114.466C8.28889 115.727 6.19041 118.854 6.2504 122.344L6.6822 149.46C6.73916 152.948 8.93525 155.868 12.4414 157.019L28.1027 162.278C30.7989 163.036 32.4457 165.027 33.423 167.427C35.2685 173.438 37.7684 178.907 40.5356 184.096C41.7858 186.628 41.8254 189.045 40.9279 191.612L34.0494 206.625C32.4884 209.603 33.0861 213.488 35.6721 215.731L55.0459 234.758C57.6354 237.132 61.268 237.609 64.4649 236.217L79.1171 228.73C81.6525 227.616 84.3358 227.575 86.5054 228.88C92.0556 231.614 97.7336 233.938 103.535 235.591C105.962 236.359 108.001 238.073 108.989 240.742L114.6 255.958C115.863 259.294 118.711 261.264 122.341 261.206L149.457 260.772C152.945 260.717 156.004 258.651 157.158 255.275L162.28 239.89C163.177 237.189 165.025 235.411 167.565 234.566C173.313 232.73 179.045 230.22 184.372 227.313C186.498 225.938 189.181 225.894 191.616 226.928L206.633 233.94C209.743 235.234 213.489 234.637 215.733 232.184L234.888 212.543C237.139 210.22 237.745 206.318 236.357 203.385L228.731 188.606C227.753 186.067 227.713 183.65 228.88 181.081C231.479 175.804 233.81 170.259 235.461 164.191C236.226 161.764 237.937 159.72 240.613 158.874L256.094 153.12C259.298 151.86 261.53 148.869 261.473 145.381L261.041 118.265C260.987 114.774 258.654 111.718 255.412 110.564ZM217.783 132.101C218.58 178.481 181.726 216.756 135.349 217.659C89.137 218.561 50.6976 181.599 49.8983 135.168C49.0487 88.9536 86.0673 50.6737 132.285 49.7718C178.714 48.9755 216.939 85.8867 217.783 132.101Z" fill="url(#paint6_radial_547_810)" fill-opacity="0.45"/>
</g>
<g filter="url(#filter1_i_547_810)">
<path d="M255.412 110.564L239.75 105.308C237.323 104.542 235.414 102.692 234.707 100.423C232.594 94.2807 230.354 88.6745 227.317 83.3533C226.074 81.0907 226.033 78.5405 226.935 76.2429L234.08 61.2255C235.37 57.8458 234.64 54.2314 232.32 51.9835L212.544 32.8318C210.223 30.4536 206.452 29.9769 203.392 31.5019L188.47 38.99C186.206 39.9665 183.656 40.0096 181.355 38.9746C175.941 36.2402 170.127 33.9135 164.324 32.1278C161.757 31.2303 159.852 29.5156 159.01 27.1088L153.253 11.6279C151.99 8.29148 148.872 6.19257 145.379 6.24981L118.262 6.68161C114.639 6.73941 111.854 8.93177 110.701 12.3077L105.447 27.9659C104.679 30.3989 102.692 32.1759 100.294 33.1531C94.5505 35.1246 88.8155 37.6346 83.4907 40.5388C81.3604 41.6448 78.6772 41.6887 76.3795 40.7838L61.2269 33.779C57.9825 32.3525 54.3645 32.9488 51.8511 35.4061L32.9712 55.1753C30.5903 57.4987 30.1098 61.1344 31.5034 64.4673L39.1295 79.2489C40.1062 81.5187 40.1464 84.0688 38.9752 86.368C35.9716 91.7865 34.0493 97.4594 32.1327 103.665C31.3639 105.959 29.5162 107.871 27.2455 108.712L11.7644 114.466C8.28889 115.727 6.19041 118.854 6.2504 122.344L6.6822 149.46C6.73916 152.948 8.93525 155.868 12.4414 157.019L28.1027 162.278C30.7989 163.036 32.4457 165.027 33.423 167.427C35.2685 173.438 37.7684 178.907 40.5356 184.096C41.7858 186.628 41.8254 189.045 40.9279 191.612L34.0494 206.625C32.4884 209.603 33.0861 213.488 35.6721 215.731L55.0459 234.758C57.6354 237.132 61.268 237.609 64.4649 236.217L79.1171 228.73C81.6525 227.616 84.3358 227.575 86.5054 228.88C92.0556 231.614 97.7336 233.938 103.535 235.591C105.962 236.359 108.001 238.073 108.989 240.742L114.6 255.958C115.863 259.294 118.711 261.264 122.341 261.206L149.457 260.772C152.945 260.717 156.004 258.651 157.158 255.275L162.28 239.89C163.177 237.189 165.025 235.411 167.565 234.566C173.313 232.73 179.045 230.22 184.372 227.313C186.498 225.938 189.181 225.894 191.616 226.928L206.633 233.94C209.743 235.234 213.489 234.637 215.733 232.184L234.888 212.543C237.139 210.22 237.745 206.318 236.357 203.385L228.731 188.606C227.753 186.067 227.713 183.65 228.88 181.081C231.479 175.804 233.81 170.259 235.461 164.191C236.226 161.764 237.937 159.72 240.613 158.874L256.094 153.12C259.298 151.86 261.53 148.869 261.473 145.381L261.041 118.265C260.987 114.774 258.654 111.718 255.412 110.564ZM217.783 132.101C218.58 178.481 181.726 216.756 135.349 217.659C89.137 218.561 50.6976 181.599 49.8983 135.168C49.0487 88.9536 86.0673 50.6737 132.285 49.7718C178.714 48.9755 216.939 85.8867 217.783 132.101Z" fill="url(#paint7_radial_547_810)"/>
<path d="M255.412 110.564L239.75 105.308C237.323 104.542 235.414 102.692 234.707 100.423C232.594 94.2807 230.354 88.6745 227.317 83.3533C226.074 81.0907 226.033 78.5405 226.935 76.2429L234.08 61.2255C235.37 57.8458 234.64 54.2314 232.32 51.9835L212.544 32.8318C210.223 30.4536 206.452 29.9769 203.392 31.5019L188.47 38.99C186.206 39.9665 183.656 40.0096 181.355 38.9746C175.941 36.2402 170.127 33.9135 164.324 32.1278C161.757 31.2303 159.852 29.5156 159.01 27.1088L153.253 11.6279C151.99 8.29148 148.872 6.19257 145.379 6.24981L118.262 6.68161C114.639 6.73941 111.854 8.93177 110.701 12.3077L105.447 27.9659C104.679 30.3989 102.692 32.1759 100.294 33.1531C94.5505 35.1246 88.8155 37.6346 83.4907 40.5388C81.3604 41.6448 78.6772 41.6887 76.3795 40.7838L61.2269 33.779C57.9825 32.3525 54.3645 32.9488 51.8511 35.4061L32.9712 55.1753C30.5903 57.4987 30.1098 61.1344 31.5034 64.4673L39.1295 79.2489C40.1062 81.5187 40.1464 84.0688 38.9752 86.368C35.9716 91.7865 34.0493 97.4594 32.1327 103.665C31.3639 105.959 29.5162 107.871 27.2455 108.712L11.7644 114.466C8.28889 115.727 6.19041 118.854 6.2504 122.344L6.6822 149.46C6.73916 152.948 8.93525 155.868 12.4414 157.019L28.1027 162.278C30.7989 163.036 32.4457 165.027 33.423 167.427C35.2685 173.438 37.7684 178.907 40.5356 184.096C41.7858 186.628 41.8254 189.045 40.9279 191.612L34.0494 206.625C32.4884 209.603 33.0861 213.488 35.6721 215.731L55.0459 234.758C57.6354 237.132 61.268 237.609 64.4649 236.217L79.1171 228.73C81.6525 227.616 84.3358 227.575 86.5054 228.88C92.0556 231.614 97.7336 233.938 103.535 235.591C105.962 236.359 108.001 238.073 108.989 240.742L114.6 255.958C115.863 259.294 118.711 261.264 122.341 261.206L149.457 260.772C152.945 260.717 156.004 258.651 157.158 255.275L162.28 239.89C163.177 237.189 165.025 235.411 167.565 234.566C173.313 232.73 179.045 230.22 184.372 227.313C186.498 225.938 189.181 225.894 191.616 226.928L206.633 233.94C209.743 235.234 213.489 234.637 215.733 232.184L234.888 212.543C237.139 210.22 237.745 206.318 236.357 203.385L228.731 188.606C227.753 186.067 227.713 183.65 228.88 181.081C231.479 175.804 233.81 170.259 235.461 164.191C236.226 161.764 237.937 159.72 240.613 158.874L256.094 153.12C259.298 151.86 261.53 148.869 261.473 145.381L261.041 118.265C260.987 114.774 258.654 111.718 255.412 110.564ZM217.783 132.101C218.58 178.481 181.726 216.756 135.349 217.659C89.137 218.561 50.6976 181.599 49.8983 135.168C49.0487 88.9536 86.0673 50.6737 132.285 49.7718C178.714 48.9755 216.939 85.8867 217.783 132.101Z" fill="white" fill-opacity="0.15"/>
<path d="M255.412 110.564L239.75 105.308C237.323 104.542 235.414 102.692 234.707 100.423C232.594 94.2807 230.354 88.6745 227.317 83.3533C226.074 81.0907 226.033 78.5405 226.935 76.2429L234.08 61.2255C235.37 57.8458 234.64 54.2314 232.32 51.9835L212.544 32.8318C210.223 30.4536 206.452 29.9769 203.392 31.5019L188.47 38.99C186.206 39.9665 183.656 40.0096 181.355 38.9746C175.941 36.2402 170.127 33.9135 164.324 32.1278C161.757 31.2303 159.852 29.5156 159.01 27.1088L153.253 11.6279C151.99 8.29148 148.872 6.19257 145.379 6.24981L118.262 6.68161C114.639 6.73941 111.854 8.93177 110.701 12.3077L105.447 27.9659C104.679 30.3989 102.692 32.1759 100.294 33.1531C94.5505 35.1246 88.8155 37.6346 83.4907 40.5388C81.3604 41.6448 78.6772 41.6887 76.3795 40.7838L61.2269 33.779C57.9825 32.3525 54.3645 32.9488 51.8511 35.4061L32.9712 55.1753C30.5903 57.4987 30.1098 61.1344 31.5034 64.4673L39.1295 79.2489C40.1062 81.5187 40.1464 84.0688 38.9752 86.368C35.9716 91.7865 34.0493 97.4594 32.1327 103.665C31.3639 105.959 29.5162 107.871 27.2455 108.712L11.7644 114.466C8.28889 115.727 6.19041 118.854 6.2504 122.344L6.6822 149.46C6.73916 152.948 8.93525 155.868 12.4414 157.019L28.1027 162.278C30.7989 163.036 32.4457 165.027 33.423 167.427C35.2685 173.438 37.7684 178.907 40.5356 184.096C41.7858 186.628 41.8254 189.045 40.9279 191.612L34.0494 206.625C32.4884 209.603 33.0861 213.488 35.6721 215.731L55.0459 234.758C57.6354 237.132 61.268 237.609 64.4649 236.217L79.1171 228.73C81.6525 227.616 84.3358 227.575 86.5054 228.88C92.0556 231.614 97.7336 233.938 103.535 235.591C105.962 236.359 108.001 238.073 108.989 240.742L114.6 255.958C115.863 259.294 118.711 261.264 122.341 261.206L149.457 260.772C152.945 260.717 156.004 258.651 157.158 255.275L162.28 239.89C163.177 237.189 165.025 235.411 167.565 234.566C173.313 232.73 179.045 230.22 184.372 227.313C186.498 225.938 189.181 225.894 191.616 226.928L206.633 233.94C209.743 235.234 213.489 234.637 215.733 232.184L234.888 212.543C237.139 210.22 237.745 206.318 236.357 203.385L228.731 188.606C227.753 186.067 227.713 183.65 228.88 181.081C231.479 175.804 233.81 170.259 235.461 164.191C236.226 161.764 237.937 159.72 240.613 158.874L256.094 153.12C259.298 151.86 261.53 148.869 261.473 145.381L261.041 118.265C260.987 114.774 258.654 111.718 255.412 110.564ZM217.783 132.101C218.58 178.481 181.726 216.756 135.349 217.659C89.137 218.561 50.6976 181.599 49.8983 135.168C49.0487 88.9536 86.0673 50.6737 132.285 49.7718C178.714 48.9755 216.939 85.8867 217.783 132.101Z" fill="url(#paint8_radial_547_810)" fill-opacity="0.25"/>
<path d="M255.412 110.564L239.75 105.308C237.323 104.542 235.414 102.692 234.707 100.423C232.594 94.2807 230.354 88.6745 227.317 83.3533C226.074 81.0907 226.033 78.5405 226.935 76.2429L234.08 61.2255C235.37 57.8458 234.64 54.2314 232.32 51.9835L212.544 32.8318C210.223 30.4536 206.452 29.9769 203.392 31.5019L188.47 38.99C186.206 39.9665 183.656 40.0096 181.355 38.9746C175.941 36.2402 170.127 33.9135 164.324 32.1278C161.757 31.2303 159.852 29.5156 159.01 27.1088L153.253 11.6279C151.99 8.29148 148.872 6.19257 145.379 6.24981L118.262 6.68161C114.639 6.73941 111.854 8.93177 110.701 12.3077L105.447 27.9659C104.679 30.3989 102.692 32.1759 100.294 33.1531C94.5505 35.1246 88.8155 37.6346 83.4907 40.5388C81.3604 41.6448 78.6772 41.6887 76.3795 40.7838L61.2269 33.779C57.9825 32.3525 54.3645 32.9488 51.8511 35.4061L32.9712 55.1753C30.5903 57.4987 30.1098 61.1344 31.5034 64.4673L39.1295 79.2489C40.1062 81.5187 40.1464 84.0688 38.9752 86.368C35.9716 91.7865 34.0493 97.4594 32.1327 103.665C31.3639 105.959 29.5162 107.871 27.2455 108.712L11.7644 114.466C8.28889 115.727 6.19041 118.854 6.2504 122.344L6.6822 149.46C6.73916 152.948 8.93525 155.868 12.4414 157.019L28.1027 162.278C30.7989 163.036 32.4457 165.027 33.423 167.427C35.2685 173.438 37.7684 178.907 40.5356 184.096C41.7858 186.628 41.8254 189.045 40.9279 191.612L34.0494 206.625C32.4884 209.603 33.0861 213.488 35.6721 215.731L55.0459 234.758C57.6354 237.132 61.268 237.609 64.4649 236.217L79.1171 228.73C81.6525 227.616 84.3358 227.575 86.5054 228.88C92.0556 231.614 97.7336 233.938 103.535 235.591C105.962 236.359 108.001 238.073 108.989 240.742L114.6 255.958C115.863 259.294 118.711 261.264 122.341 261.206L149.457 260.772C152.945 260.717 156.004 258.651 157.158 255.275L162.28 239.89C163.177 237.189 165.025 235.411 167.565 234.566C173.313 232.73 179.045 230.22 184.372 227.313C186.498 225.938 189.181 225.894 191.616 226.928L206.633 233.94C209.743 235.234 213.489 234.637 215.733 232.184L234.888 212.543C237.139 210.22 237.745 206.318 236.357 203.385L228.731 188.606C227.753 186.067 227.713 183.65 228.88 181.081C231.479 175.804 233.81 170.259 235.461 164.191C236.226 161.764 237.937 159.72 240.613 158.874L256.094 153.12C259.298 151.86 261.53 148.869 261.473 145.381L261.041 118.265C260.987 114.774 258.654 111.718 255.412 110.564ZM217.783 132.101C218.58 178.481 181.726 216.756 135.349 217.659C89.137 218.561 50.6976 181.599 49.8983 135.168C49.0487 88.9536 86.0673 50.6737 132.285 49.7718C178.714 48.9755 216.939 85.8867 217.783 132.101Z" fill="url(#paint9_radial_547_810)" fill-opacity="0.45"/>
</g>
<g filter="url(#filter2_i_547_810)">
<path d="M255.412 110.564L239.75 105.308C237.323 104.542 235.414 102.692 234.707 100.423C232.594 94.2807 230.354 88.6745 227.317 83.3533C226.074 81.0907 226.033 78.5405 226.935 76.2429L234.08 61.2255C235.37 57.8458 234.64 54.2314 232.32 51.9835L212.544 32.8318C210.223 30.4536 206.452 29.9769 203.392 31.5019L188.47 38.99C186.206 39.9665 183.656 40.0096 181.355 38.9746C175.941 36.2402 170.127 33.9135 164.324 32.1278C161.757 31.2303 159.852 29.5156 159.01 27.1088L153.253 11.6279C151.99 8.29148 148.872 6.19257 145.379 6.24981L118.262 6.68161C114.639 6.73941 111.854 8.93177 110.701 12.3077L105.447 27.9659C104.679 30.3989 102.692 32.1759 100.294 33.1531C94.5505 35.1246 88.8155 37.6346 83.4907 40.5388C81.3604 41.6448 78.6772 41.6887 76.3795 40.7838L61.2269 33.779C57.9825 32.3525 54.3645 32.9488 51.8511 35.4061L32.9712 55.1753C30.5903 57.4987 30.1098 61.1344 31.5034 64.4673L39.1295 79.2489C40.1062 81.5187 40.1464 84.0688 38.9752 86.368C35.9716 91.7865 34.0493 97.4594 32.1327 103.665C31.3639 105.959 29.5162 107.871 27.2455 108.712L11.7644 114.466C8.28889 115.727 6.19041 118.854 6.2504 122.344L6.6822 149.46C6.73916 152.948 8.93525 155.868 12.4414 157.019L28.1027 162.278C30.7989 163.036 32.4457 165.027 33.423 167.427C35.2685 173.438 37.7684 178.907 40.5356 184.096C41.7858 186.628 41.8254 189.045 40.9279 191.612L34.0494 206.625C32.4884 209.603 33.0861 213.488 35.6721 215.731L55.0459 234.758C57.6354 237.132 61.268 237.609 64.4649 236.217L79.1171 228.73C81.6525 227.616 84.3358 227.575 86.5054 228.88C92.0556 231.614 97.7336 233.938 103.535 235.591C105.962 236.359 108.001 238.073 108.989 240.742L114.6 255.958C115.863 259.294 118.711 261.264 122.341 261.206L149.457 260.772C152.945 260.717 156.004 258.651 157.158 255.275L162.28 239.89C163.177 237.189 165.025 235.411 167.565 234.566C173.313 232.73 179.045 230.22 184.372 227.313C186.498 225.938 189.181 225.894 191.616 226.928L206.633 233.94C209.743 235.234 213.489 234.637 215.733 232.184L234.888 212.543C237.139 210.22 237.745 206.318 236.357 203.385L228.731 188.606C227.753 186.067 227.713 183.65 228.88 181.081C231.479 175.804 233.81 170.259 235.461 164.191C236.226 161.764 237.937 159.72 240.613 158.874L256.094 153.12C259.298 151.86 261.53 148.869 261.473 145.381L261.041 118.265C260.987 114.774 258.654 111.718 255.412 110.564ZM217.783 132.101C218.58 178.481 181.726 216.756 135.349 217.659C89.137 218.561 50.6976 181.599 49.8983 135.168C49.0487 88.9536 86.0673 50.6737 132.285 49.7718C178.714 48.9755 216.939 85.8867 217.783 132.101Z" fill="url(#paint10_radial_547_810)"/>
<path d="M255.412 110.564L239.75 105.308C237.323 104.542 235.414 102.692 234.707 100.423C232.594 94.2807 230.354 88.6745 227.317 83.3533C226.074 81.0907 226.033 78.5405 226.935 76.2429L234.08 61.2255C235.37 57.8458 234.64 54.2314 232.32 51.9835L212.544 32.8318C210.223 30.4536 206.452 29.9769 203.392 31.5019L188.47 38.99C186.206 39.9665 183.656 40.0096 181.355 38.9746C175.941 36.2402 170.127 33.9135 164.324 32.1278C161.757 31.2303 159.852 29.5156 159.01 27.1088L153.253 11.6279C151.99 8.29148 148.872 6.19257 145.379 6.24981L118.262 6.68161C114.639 6.73941 111.854 8.93177 110.701 12.3077L105.447 27.9659C104.679 30.3989 102.692 32.1759 100.294 33.1531C94.5505 35.1246 88.8155 37.6346 83.4907 40.5388C81.3604 41.6448 78.6772 41.6887 76.3795 40.7838L61.2269 33.779C57.9825 32.3525 54.3645 32.9488 51.8511 35.4061L32.9712 55.1753C30.5903 57.4987 30.1098 61.1344 31.5034 64.4673L39.1295 79.2489C40.1062 81.5187 40.1464 84.0688 38.9752 86.368C35.9716 91.7865 34.0493 97.4594 32.1327 103.665C31.3639 105.959 29.5162 107.871 27.2455 108.712L11.7644 114.466C8.28889 115.727 6.19041 118.854 6.2504 122.344L6.6822 149.46C6.73916 152.948 8.93525 155.868 12.4414 157.019L28.1027 162.278C30.7989 163.036 32.4457 165.027 33.423 167.427C35.2685 173.438 37.7684 178.907 40.5356 184.096C41.7858 186.628 41.8254 189.045 40.9279 191.612L34.0494 206.625C32.4884 209.603 33.0861 213.488 35.6721 215.731L55.0459 234.758C57.6354 237.132 61.268 237.609 64.4649 236.217L79.1171 228.73C81.6525 227.616 84.3358 227.575 86.5054 228.88C92.0556 231.614 97.7336 233.938 103.535 235.591C105.962 236.359 108.001 238.073 108.989 240.742L114.6 255.958C115.863 259.294 118.711 261.264 122.341 261.206L149.457 260.772C152.945 260.717 156.004 258.651 157.158 255.275L162.28 239.89C163.177 237.189 165.025 235.411 167.565 234.566C173.313 232.73 179.045 230.22 184.372 227.313C186.498 225.938 189.181 225.894 191.616 226.928L206.633 233.94C209.743 235.234 213.489 234.637 215.733 232.184L234.888 212.543C237.139 210.22 237.745 206.318 236.357 203.385L228.731 188.606C227.753 186.067 227.713 183.65 228.88 181.081C231.479 175.804 233.81 170.259 235.461 164.191C236.226 161.764 237.937 159.72 240.613 158.874L256.094 153.12C259.298 151.86 261.53 148.869 261.473 145.381L261.041 118.265C260.987 114.774 258.654 111.718 255.412 110.564ZM217.783 132.101C218.58 178.481 181.726 216.756 135.349 217.659C89.137 218.561 50.6976 181.599 49.8983 135.168C49.0487 88.9536 86.0673 50.6737 132.285 49.7718C178.714 48.9755 216.939 85.8867 217.783 132.101Z" fill="white" fill-opacity="0.15"/>
<path d="M255.412 110.564L239.75 105.308C237.323 104.542 235.414 102.692 234.707 100.423C232.594 94.2807 230.354 88.6745 227.317 83.3533C226.074 81.0907 226.033 78.5405 226.935 76.2429L234.08 61.2255C235.37 57.8458 234.64 54.2314 232.32 51.9835L212.544 32.8318C210.223 30.4536 206.452 29.9769 203.392 31.5019L188.47 38.99C186.206 39.9665 183.656 40.0096 181.355 38.9746C175.941 36.2402 170.127 33.9135 164.324 32.1278C161.757 31.2303 159.852 29.5156 159.01 27.1088L153.253 11.6279C151.99 8.29148 148.872 6.19257 145.379 6.24981L118.262 6.68161C114.639 6.73941 111.854 8.93177 110.701 12.3077L105.447 27.9659C104.679 30.3989 102.692 32.1759 100.294 33.1531C94.5505 35.1246 88.8155 37.6346 83.4907 40.5388C81.3604 41.6448 78.6772 41.6887 76.3795 40.7838L61.2269 33.779C57.9825 32.3525 54.3645 32.9488 51.8511 35.4061L32.9712 55.1753C30.5903 57.4987 30.1098 61.1344 31.5034 64.4673L39.1295 79.2489C40.1062 81.5187 40.1464 84.0688 38.9752 86.368C35.9716 91.7865 34.0493 97.4594 32.1327 103.665C31.3639 105.959 29.5162 107.871 27.2455 108.712L11.7644 114.466C8.28889 115.727 6.19041 118.854 6.2504 122.344L6.6822 149.46C6.73916 152.948 8.93525 155.868 12.4414 157.019L28.1027 162.278C30.7989 163.036 32.4457 165.027 33.423 167.427C35.2685 173.438 37.7684 178.907 40.5356 184.096C41.7858 186.628 41.8254 189.045 40.9279 191.612L34.0494 206.625C32.4884 209.603 33.0861 213.488 35.6721 215.731L55.0459 234.758C57.6354 237.132 61.268 237.609 64.4649 236.217L79.1171 228.73C81.6525 227.616 84.3358 227.575 86.5054 228.88C92.0556 231.614 97.7336 233.938 103.535 235.591C105.962 236.359 108.001 238.073 108.989 240.742L114.6 255.958C115.863 259.294 118.711 261.264 122.341 261.206L149.457 260.772C152.945 260.717 156.004 258.651 157.158 255.275L162.28 239.89C163.177 237.189 165.025 235.411 167.565 234.566C173.313 232.73 179.045 230.22 184.372 227.313C186.498 225.938 189.181 225.894 191.616 226.928L206.633 233.94C209.743 235.234 213.489 234.637 215.733 232.184L234.888 212.543C237.139 210.22 237.745 206.318 236.357 203.385L228.731 188.606C227.753 186.067 227.713 183.65 228.88 181.081C231.479 175.804 233.81 170.259 235.461 164.191C236.226 161.764 237.937 159.72 240.613 158.874L256.094 153.12C259.298 151.86 261.53 148.869 261.473 145.381L261.041 118.265C260.987 114.774 258.654 111.718 255.412 110.564ZM217.783 132.101C218.58 178.481 181.726 216.756 135.349 217.659C89.137 218.561 50.6976 181.599 49.8983 135.168C49.0487 88.9536 86.0673 50.6737 132.285 49.7718C178.714 48.9755 216.939 85.8867 217.783 132.101Z" fill="url(#paint11_radial_547_810)" fill-opacity="0.25"/>
<path d="M255.412 110.564L239.75 105.308C237.323 104.542 235.414 102.692 234.707 100.423C232.594 94.2807 230.354 88.6745 227.317 83.3533C226.074 81.0907 226.033 78.5405 226.935 76.2429L234.08 61.2255C235.37 57.8458 234.64 54.2314 232.32 51.9835L212.544 32.8318C210.223 30.4536 206.452 29.9769 203.392 31.5019L188.47 38.99C186.206 39.9665 183.656 40.0096 181.355 38.9746C175.941 36.2402 170.127 33.9135 164.324 32.1278C161.757 31.2303 159.852 29.5156 159.01 27.1088L153.253 11.6279C151.99 8.29148 148.872 6.19257 145.379 6.24981L118.262 6.68161C114.639 6.73941 111.854 8.93177 110.701 12.3077L105.447 27.9659C104.679 30.3989 102.692 32.1759 100.294 33.1531C94.5505 35.1246 88.8155 37.6346 83.4907 40.5388C81.3604 41.6448 78.6772 41.6887 76.3795 40.7838L61.2269 33.779C57.9825 32.3525 54.3645 32.9488 51.8511 35.4061L32.9712 55.1753C30.5903 57.4987 30.1098 61.1344 31.5034 64.4673L39.1295 79.2489C40.1062 81.5187 40.1464 84.0688 38.9752 86.368C35.9716 91.7865 34.0493 97.4594 32.1327 103.665C31.3639 105.959 29.5162 107.871 27.2455 108.712L11.7644 114.466C8.28889 115.727 6.19041 118.854 6.2504 122.344L6.6822 149.46C6.73916 152.948 8.93525 155.868 12.4414 157.019L28.1027 162.278C30.7989 163.036 32.4457 165.027 33.423 167.427C35.2685 173.438 37.7684 178.907 40.5356 184.096C41.7858 186.628 41.8254 189.045 40.9279 191.612L34.0494 206.625C32.4884 209.603 33.0861 213.488 35.6721 215.731L55.0459 234.758C57.6354 237.132 61.268 237.609 64.4649 236.217L79.1171 228.73C81.6525 227.616 84.3358 227.575 86.5054 228.88C92.0556 231.614 97.7336 233.938 103.535 235.591C105.962 236.359 108.001 238.073 108.989 240.742L114.6 255.958C115.863 259.294 118.711 261.264 122.341 261.206L149.457 260.772C152.945 260.717 156.004 258.651 157.158 255.275L162.28 239.89C163.177 237.189 165.025 235.411 167.565 234.566C173.313 232.73 179.045 230.22 184.372 227.313C186.498 225.938 189.181 225.894 191.616 226.928L206.633 233.94C209.743 235.234 213.489 234.637 215.733 232.184L234.888 212.543C237.139 210.22 237.745 206.318 236.357 203.385L228.731 188.606C227.753 186.067 227.713 183.65 228.88 181.081C231.479 175.804 233.81 170.259 235.461 164.191C236.226 161.764 237.937 159.72 240.613 158.874L256.094 153.12C259.298 151.86 261.53 148.869 261.473 145.381L261.041 118.265C260.987 114.774 258.654 111.718 255.412 110.564ZM217.783 132.101C218.58 178.481 181.726 216.756 135.349 217.659C89.137 218.561 50.6976 181.599 49.8983 135.168C49.0487 88.9536 86.0673 50.6737 132.285 49.7718C178.714 48.9755 216.939 85.8867 217.783 132.101Z" fill="url(#paint12_radial_547_810)" fill-opacity="0.45"/>
</g>
</g>
<defs>
<filter id="filter0_i_547_810" x="6.25" y="6.24878" width="255.225" height="254.959" filterUnits="userSpaceOnUse" color-interpolation-filters="sRGB">
<feFlood flood-opacity="0" result="BackgroundImageFix"/>
<feBlend mode="normal" in="SourceGraphic" in2="BackgroundImageFix" result="shape"/>
<feColorMatrix in="SourceAlpha" type="matrix" values="0 0 0 0 0 0 0 0 0 0 0 0 0 0 0 0 0 0 127 0" result="hardAlpha"/>
<feMorphology radius="10" operator="dilate" in="SourceAlpha" result="effect1_innerShadow_547_810"/>
<feOffset dy="5"/>
<feGaussianBlur stdDeviation="4"/>
<feComposite in2="hardAlpha" operator="arithmetic" k2="-1" k3="1"/>
<feColorMatrix type="matrix" values="0 0 0 0 1 0 0 0 0 1 0 0 0 0 1 0 0 0 0.75 0"/>
<feBlend mode="normal" in2="shape" result="effect1_innerShadow_547_810"/>
</filter>
<filter id="filter1_i_547_810" x="6.25" y="6.24878" width="255.225" height="254.959" filterUnits="userSpaceOnUse" color-interpolation-filters="sRGB">
<feFlood flood-opacity="0" result="BackgroundImageFix"/>
<feBlend mode="normal" in="SourceGraphic" in2="BackgroundImageFix" result="shape"/>
<feColorMatrix in="SourceAlpha" type="matrix" values="0 0 0 0 0 0 0 0 0 0 0 0 0 0 0 0 0 0 127 0" result="hardAlpha"/>
<feMorphology radius="10" operator="dilate" in="SourceAlpha" result="effect1_innerShadow_547_810"/>
<feOffset dy="5"/>
<feGaussianBlur stdDeviation="4"/>
<feComposite in2="hardAlpha" operator="arithmetic" k2="-1" k3="1"/>
<feColorMatrix type="matrix" values="0 0 0 0 1 0 0 0 0 1 0 0 0 0 1 0 0 0 0.75 0"/>
<feBlend mode="normal" in2="shape" result="effect1_innerShadow_547_810"/>
</filter>
<filter id="filter2_i_547_810" x="6.25" y="6.24878" width="255.225" height="254.959" filterUnits="userSpaceOnUse" color-interpolation-filters="sRGB">
<feFlood flood-opacity="0" result="BackgroundImageFix"/>
<feBlend mode="normal" in="SourceGraphic" in2="BackgroundImageFix" result="shape"/>
<feColorMatrix in="SourceAlpha" type="matrix" values="0 0 0 0 0 0 0 0 0 0 0 0 0 0 0 0 0 0 127 0" result="hardAlpha"/>
<feMorphology radius="10" operator="dilate" in="SourceAlpha" result="effect1_innerShadow_547_810"/>
<feOffset dy="5"/>
<feGaussianBlur stdDeviation="4"/>
<feComposite in2="hardAlpha" operator="arithmetic" k2="-1" k3="1"/>
<feColorMatrix type="matrix" values="0 0 0 0 1 0 0 0 0 1 0 0 0 0 1 0 0 0 0.75 0"/>
<feBlend mode="normal" in2="shape" result="effect1_innerShadow_547_810"/>
</filter>
<radialGradient id="paint0_radial_547_810" cx="0" cy="0" r="1" gradientUnits="userSpaceOnUse" gradientTransform="translate(130.479 204.684) rotate(-85.1555) scale(156.025 156.035)">
<stop offset="0.27882" stop-color="#7CCAC3"/>
<stop offset="0.929206" stop-color="#008489"/>
</radialGradient>
<radialGradient id="paint1_radial_547_810" cx="0" cy="0" r="1" gradientUnits="userSpaceOnUse" gradientTransform="translate(122.96 150.399) rotate(177.211) scale(103.288 103.284)">
<stop stop-color="#B8B3AE"/>
<stop offset="0.17" stop-color="#B5ACA4"/>
<stop offset="0.22" stop-color="#B1A8A0"/>
<stop offset="0.26" stop-color="#B1A599"/>
<stop offset="0.42" stop-color="#A3988D"/>
<stop offset="0.65" stop-color="#8E8882"/>
<stop offset="0.91" stop-color="#766E68"/>
<stop offset="1" stop-color="#716B66"/>
</radialGradient>
<radialGradient id="paint2_radial_547_810" cx="0" cy="0" r="1" gradientUnits="userSpaceOnUse" gradientTransform="translate(162.327 153.722) rotate(-65.6182) scale(145.414 135.466)">
<stop stop-color="#745A45" stop-opacity="0"/>
<stop offset="1" stop-color="#745A45"/>
</radialGradient>
<radialGradient id="paint3_radial_547_810" cx="0" cy="0" r="1" gradientUnits="userSpaceOnUse" gradientTransform="translate(168.682 72.4145) rotate(141.875) scale(176.832 98.2052)">
<stop stop-color="#9D846F"/>
<stop offset="1" stop-color="#9D846F" stop-opacity="0.1"/>
</radialGradient>
<radialGradient id="paint4_radial_547_810" cx="0" cy="0" r="1" gradientUnits="userSpaceOnUse" gradientTransform="translate(150.421 108.356) rotate(-2.78929) scale(157.214 157.049)">
<stop stop-color="#B8B3AE"/>
<stop offset="0.17" stop-color="#B5ACA4"/>
<stop offset="0.22" stop-color="#B1A8A0"/>
<stop offset="0.26" stop-color="#B1A599"/>
<stop offset="0.42" stop-color="#A3988D"/>
<stop offset="0.65" stop-color="#8E8882"/>
<stop offset="0.91" stop-color="#766E68"/>
<stop offset="1" stop-color="#716B66"/>
</radialGradient>
<radialGradient id="paint5_radial_547_810" cx="0" cy="0" r="1" gradientUnits="userSpaceOnUse" gradientTransform="translate(90.5005 103.306) rotate(114.405) scale(221.157 206.148)">
<stop stop-color="#745A45" stop-opacity="0"/>
<stop offset="1" stop-color="#745A45"/>
</radialGradient>
<radialGradient id="paint6_radial_547_810" cx="0" cy="0" r="1" gradientUnits="userSpaceOnUse" gradientTransform="translate(80.8218 226.939) rotate(-38.0974) scale(269.063 149.377)">
<stop stop-color="#9D846F"/>
<stop offset="1" stop-color="#9D846F" stop-opacity="0.1"/>
</radialGradient>
<radialGradient id="paint7_radial_547_810" cx="0" cy="0" r="1" gradientUnits="userSpaceOnUse" gradientTransform="translate(150.421 108.356) rotate(-2.78929) scale(157.214 157.049)">
<stop stop-color="#B8B3AE"/>
<stop offset="0.17" stop-color="#B5ACA4"/>
<stop offset="0.22" stop-color="#B1A8A0"/>
<stop offset="0.26" stop-color="#B1A599"/>
<stop offset="0.42" stop-color="#A3988D"/>
<stop offset="0.65" stop-color="#8E8882"/>
<stop offset="0.91" stop-color="#766E68"/>
<stop offset="1" stop-color="#716B66"/>
</radialGradient>
<radialGradient id="paint8_radial_547_810" cx="0" cy="0" r="1" gradientUnits="userSpaceOnUse" gradientTransform="translate(90.5005 103.306) rotate(114.405) scale(221.157 206.148)">
<stop stop-color="#745A45" stop-opacity="0"/>
<stop offset="1" stop-color="#745A45"/>
</radialGradient>
<radialGradient id="paint9_radial_547_810" cx="0" cy="0" r="1" gradientUnits="userSpaceOnUse" gradientTransform="translate(80.8218 226.939) rotate(-38.0974) scale(269.063 149.377)">
<stop stop-color="#9D846F"/>
<stop offset="1" stop-color="#9D846F" stop-opacity="0.1"/>
</radialGradient>
<radialGradient id="paint10_radial_547_810" cx="0" cy="0" r="1" gradientUnits="userSpaceOnUse" gradientTransform="translate(150.421 108.356) rotate(-2.78929) scale(157.214 157.049)">
<stop stop-color="#B8B3AE"/>
<stop offset="0.17" stop-color="#B5ACA4"/>
<stop offset="0.22" stop-color="#B1A8A0"/>
<stop offset="0.26" stop-color="#B1A599"/>
<stop offset="0.42" stop-color="#A3988D"/>
<stop offset="0.65" stop-color="#8E8882"/>
<stop offset="0.91" stop-color="#766E68"/>
<stop offset="1" stop-color="#716B66"/>
</radialGradient>
<radialGradient id="paint11_radial_547_810" cx="0" cy="0" r="1" gradientUnits="userSpaceOnUse" gradientTransform="translate(90.5005 103.306) rotate(114.405) scale(221.157 206.148)">
<stop stop-color="#745A45" stop-opacity="0"/>
<stop offset="1" stop-color="#745A45"/>
</radialGradient>
<radialGradient id="paint12_radial_547_810" cx="0" cy="0" r="1" gradientUnits="userSpaceOnUse" gradientTransform="translate(80.8218 226.939) rotate(-38.0974) scale(269.063 149.377)">
<stop stop-color="#9D846F"/>
<stop offset="1" stop-color="#9D846F" stop-opacity="0.1"/>
</radialGradient>
<clipPath id="clip0_547_810">
<rect width="255.585" height="255.316" fill="white" transform="translate(0 12.4375) rotate(-2.78929)"/>
</clipPath>
</defs>
</svg>
