<svg width="194" height="194" viewBox="0 0 194 194" fill="none" xmlns="http://www.w3.org/2000/svg">
<g clip-path="url(#clip0_550_924)">
<path d="M82.1904 146.694C109.833 154.583 138.82 138.573 146.74 110.942C154.729 83.1917 138.614 54.2092 110.975 46.3206C83.238 38.4033 54.3497 54.4403 46.3682 82.1595C38.4447 109.79 54.4419 138.703 82.1904 146.694ZM53.9093 84.3135C60.6894 60.7592 85.2395 47.1322 108.811 53.8591C132.299 60.563 145.994 85.1915 139.203 108.773C132.47 132.252 107.84 145.857 84.3518 139.153C60.7705 132.362 47.1797 107.793 53.9093 84.3135Z" fill="url(#paint0_radial_550_924)"/>
<path d="M82.1904 146.694C109.833 154.583 138.82 138.573 146.74 110.942C154.729 83.1917 138.614 54.2092 110.975 46.3206C83.238 38.4033 54.3497 54.4403 46.3682 82.1595C38.4447 109.79 54.4419 138.703 82.1904 146.694ZM53.9093 84.3135C60.6894 60.7592 85.2395 47.1322 108.811 53.8591C132.299 60.563 145.994 85.1915 139.203 108.773C132.47 132.252 107.84 145.857 84.3518 139.153C60.7705 132.362 47.1797 107.793 53.9093 84.3135Z" fill="white" fill-opacity="0.15"/>
<path d="M82.1904 146.694C109.833 154.583 138.82 138.573 146.74 110.942C154.729 83.1917 138.614 54.2092 110.975 46.3206C83.238 38.4033 54.3497 54.4403 46.3682 82.1595C38.4447 109.79 54.4419 138.703 82.1904 146.694ZM53.9093 84.3135C60.6894 60.7592 85.2395 47.1322 108.811 53.8591C132.299 60.563 145.994 85.1915 139.203 108.773C132.47 132.252 107.84 145.857 84.3518 139.153C60.7705 132.362 47.1797 107.793 53.9093 84.3135Z" fill="url(#paint1_radial_550_924)" fill-opacity="0.25"/>
<path d="M82.1904 146.694C109.833 154.583 138.82 138.573 146.74 110.942C154.729 83.1917 138.614 54.2092 110.975 46.3206C83.238 38.4033 54.3497 54.4403 46.3682 82.1595C38.4447 109.79 54.4419 138.703 82.1904 146.694ZM53.9093 84.3135C60.6894 60.7592 85.2395 47.1322 108.811 53.8591C132.299 60.563 145.994 85.1915 139.203 108.773C132.47 132.252 107.84 145.857 84.3518 139.153C60.7705 132.362 47.1797 107.793 53.9093 84.3135Z" fill="url(#paint2_radial_550_924)" fill-opacity="0.45"/>
<g filter="url(#filter0_i_550_924)">
<path d="M173.062 104.902L164.709 98.9217C163.406 98.0242 162.608 96.5758 162.601 95.0982C162.465 91.0611 162.155 87.3197 161.319 83.6024C160.993 82.0306 161.434 80.5071 162.389 79.3055L169.374 71.6797C170.757 69.9054 170.983 67.6236 170.013 65.8642L161.747 50.8725C160.801 49.0356 158.645 48.0646 156.548 48.4135L146.312 50.1451C144.787 50.3129 143.264 49.8737 142.084 48.8388C139.364 46.2261 136.331 43.7828 133.207 41.6634C131.845 40.6619 131.024 39.295 130.963 37.7107L130.362 27.4573C130.219 25.2434 128.748 23.4271 126.661 22.8242L110.461 18.1376C108.296 17.5113 106.241 18.3071 104.939 20.1039L98.9613 28.4555C98.0613 29.762 96.5557 30.4561 94.9523 30.6C91.1779 30.7251 87.3107 31.1718 83.6155 31.9277C82.1474 32.197 80.5441 31.7338 79.343 30.777L71.6113 23.85C69.9425 22.4105 67.6827 22.1054 65.7404 23.1081L50.9118 31.4197C49.0727 32.367 48.1242 34.4409 48.3451 36.6765L50.1843 46.8549C50.3512 48.3824 49.9103 49.9059 48.7948 51.0593C46.0212 53.7332 43.8442 56.7555 41.5734 60.0955C40.6981 61.3192 39.251 62.1192 37.7477 62.205L27.4947 62.8038C25.1985 62.9201 23.3809 64.3963 22.7802 66.4826L18.0935 82.6827C17.4916 84.7667 18.2648 86.9032 20.1397 88.2261L28.492 94.2081C29.9568 95.1503 30.5729 96.6342 30.7164 98.2393C30.7179 102.149 31.2071 105.857 31.9062 109.446C32.188 111.179 31.7709 112.624 30.7693 113.986L23.9429 121.658C22.4718 123.144 22.119 125.563 23.2475 127.368L31.2972 142.212C32.404 144.095 34.4767 145.041 36.6312 144.796L46.7072 143.016C48.4177 142.816 50.0205 143.281 51.0725 144.452C53.8739 147.089 56.8258 149.507 59.9739 151.547C61.2769 152.446 62.1766 153.837 62.2771 155.603L62.839 165.673C62.9819 167.886 64.3159 169.577 66.4845 170.204L82.6851 174.889C84.7686 175.493 86.9645 174.822 88.2658 173.025L94.1159 164.812C95.1413 163.37 96.5645 162.649 98.2286 162.61C101.98 162.566 105.846 162.119 109.543 161.362C111.058 160.932 112.661 161.395 113.92 162.454L121.57 169.36C123.183 170.696 125.519 171.024 127.3 169.975L142.269 161.79C144.031 160.82 145.103 158.61 144.812 156.613L142.972 146.436C142.854 144.748 143.271 143.304 144.433 141.99C146.94 139.326 149.337 136.455 151.425 133.148C152.322 131.844 153.712 130.941 155.457 130.926L165.71 130.327C167.844 130.162 169.717 128.791 170.319 126.707L175.005 110.507C175.61 108.421 174.78 106.179 173.062 104.902ZM146.764 110.847C138.783 138.566 109.895 154.603 82.1571 146.686C54.5182 138.797 38.403 109.815 46.3924 82.0639C54.3124 54.433 83.2997 38.423 110.942 46.3124C138.691 54.3032 154.688 83.2167 146.764 110.847Z" fill="url(#paint3_radial_550_924)"/>
<path d="M173.062 104.902L164.709 98.9217C163.406 98.0242 162.608 96.5758 162.601 95.0982C162.465 91.0611 162.155 87.3197 161.319 83.6024C160.993 82.0306 161.434 80.5071 162.389 79.3055L169.374 71.6797C170.757 69.9054 170.983 67.6236 170.013 65.8642L161.747 50.8725C160.801 49.0356 158.645 48.0646 156.548 48.4135L146.312 50.1451C144.787 50.3129 143.264 49.8737 142.084 48.8388C139.364 46.2261 136.331 43.7828 133.207 41.6634C131.845 40.6619 131.024 39.295 130.963 37.7107L130.362 27.4573C130.219 25.2434 128.748 23.4271 126.661 22.8242L110.461 18.1376C108.296 17.5113 106.241 18.3071 104.939 20.1039L98.9613 28.4555C98.0613 29.762 96.5557 30.4561 94.9523 30.6C91.1779 30.7251 87.3107 31.1718 83.6155 31.9277C82.1474 32.197 80.5441 31.7338 79.343 30.777L71.6113 23.85C69.9425 22.4105 67.6827 22.1054 65.7404 23.1081L50.9118 31.4197C49.0727 32.367 48.1242 34.4409 48.3451 36.6765L50.1843 46.8549C50.3512 48.3824 49.9103 49.9059 48.7948 51.0593C46.0212 53.7332 43.8442 56.7555 41.5734 60.0955C40.6981 61.3192 39.251 62.1192 37.7477 62.205L27.4947 62.8038C25.1985 62.9201 23.3809 64.3963 22.7802 66.4826L18.0935 82.6827C17.4916 84.7667 18.2648 86.9032 20.1397 88.2261L28.492 94.2081C29.9568 95.1503 30.5729 96.6342 30.7164 98.2393C30.7179 102.149 31.2071 105.857 31.9062 109.446C32.188 111.179 31.7709 112.624 30.7693 113.986L23.9429 121.658C22.4718 123.144 22.119 125.563 23.2475 127.368L31.2972 142.212C32.404 144.095 34.4767 145.041 36.6312 144.796L46.7072 143.016C48.4177 142.816 50.0205 143.281 51.0725 144.452C53.8739 147.089 56.8258 149.507 59.9739 151.547C61.2769 152.446 62.1766 153.837 62.2771 155.603L62.839 165.673C62.9819 167.886 64.3159 169.577 66.4845 170.204L82.6851 174.889C84.7686 175.493 86.9645 174.822 88.2658 173.025L94.1159 164.812C95.1413 163.37 96.5645 162.649 98.2286 162.61C101.98 162.566 105.846 162.119 109.543 161.362C111.058 160.932 112.661 161.395 113.92 162.454L121.57 169.36C123.183 170.696 125.519 171.024 127.3 169.975L142.269 161.79C144.031 160.82 145.103 158.61 144.812 156.613L142.972 146.436C142.854 144.748 143.271 143.304 144.433 141.99C146.94 139.326 149.337 136.455 151.425 133.148C152.322 131.844 153.712 130.941 155.457 130.926L165.71 130.327C167.844 130.162 169.717 128.791 170.319 126.707L175.005 110.507C175.61 108.421 174.78 106.179 173.062 104.902ZM146.764 110.847C138.783 138.566 109.895 154.603 82.1571 146.686C54.5182 138.797 38.403 109.815 46.3924 82.0639C54.3124 54.433 83.2997 38.423 110.942 46.3124C138.691 54.3032 154.688 83.2167 146.764 110.847Z" fill="white" fill-opacity="0.15"/>
<path d="M173.062 104.902L164.709 98.9217C163.406 98.0242 162.608 96.5758 162.601 95.0982C162.465 91.0611 162.155 87.3197 161.319 83.6024C160.993 82.0306 161.434 80.5071 162.389 79.3055L169.374 71.6797C170.757 69.9054 170.983 67.6236 170.013 65.8642L161.747 50.8725C160.801 49.0356 158.645 48.0646 156.548 48.4135L146.312 50.1451C144.787 50.3129 143.264 49.8737 142.084 48.8388C139.364 46.2261 136.331 43.7828 133.207 41.6634C131.845 40.6619 131.024 39.295 130.963 37.7107L130.362 27.4573C130.219 25.2434 128.748 23.4271 126.661 22.8242L110.461 18.1376C108.296 17.5113 106.241 18.3071 104.939 20.1039L98.9613 28.4555C98.0613 29.762 96.5557 30.4561 94.9523 30.6C91.1779 30.7251 87.3107 31.1718 83.6155 31.9277C82.1474 32.197 80.5441 31.7338 79.343 30.777L71.6113 23.85C69.9425 22.4105 67.6827 22.1054 65.7404 23.1081L50.9118 31.4197C49.0727 32.367 48.1242 34.4409 48.3451 36.6765L50.1843 46.8549C50.3512 48.3824 49.9103 49.9059 48.7948 51.0593C46.0212 53.7332 43.8442 56.7555 41.5734 60.0955C40.6981 61.3192 39.251 62.1192 37.7477 62.205L27.4947 62.8038C25.1985 62.9201 23.3809 64.3963 22.7802 66.4826L18.0935 82.6827C17.4916 84.7667 18.2648 86.9032 20.1397 88.2261L28.492 94.2081C29.9568 95.1503 30.5729 96.6342 30.7164 98.2393C30.7179 102.149 31.2071 105.857 31.9062 109.446C32.188 111.179 31.7709 112.624 30.7693 113.986L23.9429 121.658C22.4718 123.144 22.119 125.563 23.2475 127.368L31.2972 142.212C32.404 144.095 34.4767 145.041 36.6312 144.796L46.7072 143.016C48.4177 142.816 50.0205 143.281 51.0725 144.452C53.8739 147.089 56.8258 149.507 59.9739 151.547C61.2769 152.446 62.1766 153.837 62.2771 155.603L62.839 165.673C62.9819 167.886 64.3159 169.577 66.4845 170.204L82.6851 174.889C84.7686 175.493 86.9645 174.822 88.2658 173.025L94.1159 164.812C95.1413 163.37 96.5645 162.649 98.2286 162.61C101.98 162.566 105.846 162.119 109.543 161.362C111.058 160.932 112.661 161.395 113.92 162.454L121.57 169.36C123.183 170.696 125.519 171.024 127.3 169.975L142.269 161.79C144.031 160.82 145.103 158.61 144.812 156.613L142.972 146.436C142.854 144.748 143.271 143.304 144.433 141.99C146.94 139.326 149.337 136.455 151.425 133.148C152.322 131.844 153.712 130.941 155.457 130.926L165.71 130.327C167.844 130.162 169.717 128.791 170.319 126.707L175.005 110.507C175.61 108.421 174.78 106.179 173.062 104.902ZM146.764 110.847C138.783 138.566 109.895 154.603 82.1571 146.686C54.5182 138.797 38.403 109.815 46.3924 82.0639C54.3124 54.433 83.2997 38.423 110.942 46.3124C138.691 54.3032 154.688 83.2167 146.764 110.847Z" fill="url(#paint4_radial_550_924)" fill-opacity="0.25"/>
<path d="M173.062 104.902L164.709 98.9217C163.406 98.0242 162.608 96.5758 162.601 95.0982C162.465 91.0611 162.155 87.3197 161.319 83.6024C160.993 82.0306 161.434 80.5071 162.389 79.3055L169.374 71.6797C170.757 69.9054 170.983 67.6236 170.013 65.8642L161.747 50.8725C160.801 49.0356 158.645 48.0646 156.548 48.4135L146.312 50.1451C144.787 50.3129 143.264 49.8737 142.084 48.8388C139.364 46.2261 136.331 43.7828 133.207 41.6634C131.845 40.6619 131.024 39.295 130.963 37.7107L130.362 27.4573C130.219 25.2434 128.748 23.4271 126.661 22.8242L110.461 18.1376C108.296 17.5113 106.241 18.3071 104.939 20.1039L98.9613 28.4555C98.0613 29.762 96.5557 30.4561 94.9523 30.6C91.1779 30.7251 87.3107 31.1718 83.6155 31.9277C82.1474 32.197 80.5441 31.7338 79.343 30.777L71.6113 23.85C69.9425 22.4105 67.6827 22.1054 65.7404 23.1081L50.9118 31.4197C49.0727 32.367 48.1242 34.4409 48.3451 36.6765L50.1843 46.8549C50.3512 48.3824 49.9103 49.9059 48.7948 51.0593C46.0212 53.7332 43.8442 56.7555 41.5734 60.0955C40.6981 61.3192 39.251 62.1192 37.7477 62.205L27.4947 62.8038C25.1985 62.9201 23.3809 64.3963 22.7802 66.4826L18.0935 82.6827C17.4916 84.7667 18.2648 86.9032 20.1397 88.2261L28.492 94.2081C29.9568 95.1503 30.5729 96.6342 30.7164 98.2393C30.7179 102.149 31.2071 105.857 31.9062 109.446C32.188 111.179 31.7709 112.624 30.7693 113.986L23.9429 121.658C22.4718 123.144 22.119 125.563 23.2475 127.368L31.2972 142.212C32.404 144.095 34.4767 145.041 36.6312 144.796L46.7072 143.016C48.4177 142.816 50.0205 143.281 51.0725 144.452C53.8739 147.089 56.8258 149.507 59.9739 151.547C61.2769 152.446 62.1766 153.837 62.2771 155.603L62.839 165.673C62.9819 167.886 64.3159 169.577 66.4845 170.204L82.6851 174.889C84.7686 175.493 86.9645 174.822 88.2658 173.025L94.1159 164.812C95.1413 163.37 96.5645 162.649 98.2286 162.61C101.98 162.566 105.846 162.119 109.543 161.362C111.058 160.932 112.661 161.395 113.92 162.454L121.57 169.36C123.183 170.696 125.519 171.024 127.3 169.975L142.269 161.79C144.031 160.82 145.103 158.61 144.812 156.613L142.972 146.436C142.854 144.748 143.271 143.304 144.433 141.99C146.94 139.326 149.337 136.455 151.425 133.148C152.322 131.844 153.712 130.941 155.457 130.926L165.71 130.327C167.844 130.162 169.717 128.791 170.319 126.707L175.005 110.507C175.61 108.421 174.78 106.179 173.062 104.902ZM146.764 110.847C138.783 138.566 109.895 154.603 82.1571 146.686C54.5182 138.797 38.403 109.815 46.3924 82.0639C54.3124 54.433 83.2997 38.423 110.942 46.3124C138.691 54.3032 154.688 83.2167 146.764 110.847Z" fill="url(#paint5_radial_550_924)" fill-opacity="0.45"/>
</g>
</g>
<defs>
<filter id="filter0_i_550_924" x="17.8926" y="17.926" width="157.309" height="157.179" filterUnits="userSpaceOnUse" color-interpolation-filters="sRGB">
<feFlood flood-opacity="0" result="BackgroundImageFix"/>
<feBlend mode="normal" in="SourceGraphic" in2="BackgroundImageFix" result="shape"/>
<feColorMatrix in="SourceAlpha" type="matrix" values="0 0 0 0 0 0 0 0 0 0 0 0 0 0 0 0 0 0 127 0" result="hardAlpha"/>
<feMorphology radius="7.5" operator="dilate" in="SourceAlpha" result="effect1_innerShadow_550_924"/>
<feOffset dy="3.75"/>
<feGaussianBlur stdDeviation="3"/>
<feComposite in2="hardAlpha" operator="arithmetic" k2="-1" k3="1"/>
<feColorMatrix type="matrix" values="0 0 0 0 1 0 0 0 0 1 0 0 0 0 1 0 0 0 0.5 0"/>
<feBlend mode="normal" in2="shape" result="effect1_innerShadow_550_924"/>
</filter>
<radialGradient id="paint0_radial_550_924" cx="0" cy="0" r="1" gradientUnits="userSpaceOnUse" gradientTransform="translate(87.0553 104.439) rotate(-165.742) scale(64.2302 64.2279)">
<stop stop-color="#B8B3AE"/>
<stop offset="0.17" stop-color="#B5ACA4"/>
<stop offset="0.22" stop-color="#B1A8A0"/>
<stop offset="0.26" stop-color="#B1A599"/>
<stop offset="0.42" stop-color="#A3988D"/>
<stop offset="0.65" stop-color="#8E8882"/>
<stop offset="0.91" stop-color="#766E68"/>
<stop offset="1" stop-color="#716B66"/>
</radialGradient>
<radialGradient id="paint1_radial_550_924" cx="0" cy="0" r="1" gradientUnits="userSpaceOnUse" gradientTransform="translate(109.855 113.591) rotate(-48.5709) scale(90.4267 84.24)">
<stop stop-color="#745A45" stop-opacity="0"/>
<stop offset="1" stop-color="#745A45"/>
</radialGradient>
<radialGradient id="paint2_radial_550_924" cx="0" cy="0" r="1" gradientUnits="userSpaceOnUse" gradientTransform="translate(128.456 66.4097) rotate(158.923) scale(109.964 61.0694)">
<stop stop-color="#9D846F"/>
<stop offset="1" stop-color="#9D846F" stop-opacity="0.1"/>
</radialGradient>
<radialGradient id="paint3_radial_550_924" cx="0" cy="0" r="1" gradientUnits="userSpaceOnUse" gradientTransform="translate(111.045 84.4487) rotate(14.258) scale(97.7643 97.6618)">
<stop stop-color="#B8B3AE"/>
<stop offset="0.17" stop-color="#B5ACA4"/>
<stop offset="0.22" stop-color="#B1A8A0"/>
<stop offset="0.26" stop-color="#B1A599"/>
<stop offset="0.42" stop-color="#A3988D"/>
<stop offset="0.65" stop-color="#8E8882"/>
<stop offset="0.91" stop-color="#766E68"/>
<stop offset="1" stop-color="#716B66"/>
</radialGradient>
<radialGradient id="paint4_radial_550_924" cx="0" cy="0" r="1" gradientUnits="userSpaceOnUse" gradientTransform="translate(76.3404 70.5226) rotate(131.453) scale(137.527 128.194)">
<stop stop-color="#745A45" stop-opacity="0"/>
<stop offset="1" stop-color="#745A45"/>
</radialGradient>
<radialGradient id="paint5_radial_550_924" cx="0" cy="0" r="1" gradientUnits="userSpaceOnUse" gradientTransform="translate(48.0472 142.262) rotate(-21.05) scale(167.318 92.8906)">
<stop stop-color="#9D846F"/>
<stop offset="1" stop-color="#9D846F" stop-opacity="0.1"/>
</radialGradient>
<clipPath id="clip0_550_924">
<rect width="158.937" height="158.769" fill="white" transform="translate(39.1035) rotate(14.258)"/>
</clipPath>
</defs>
</svg>
