<svg width="146" height="44" viewBox="0 0 146 44" fill="none" xmlns="http://www.w3.org/2000/svg">
<rect x="1" y="1" width="42" height="42" rx="7" fill="#333333" stroke="white" stroke-width="2"/>
<mask id="mask0_518_663" style="mask-type:luminance" maskUnits="userSpaceOnUse" x="2" y="2" width="40" height="40">
<rect x="2" y="2" width="40" height="40" rx="6" fill="white"/>
</mask>
<g mask="url(#mask0_518_663)">
<path d="M-7.55336 60C-9.45728 60 -11.3611 59.2745 -12.8185 57.8233C-15.7271 54.9147 -15.7271 50.2077 -12.8185 47.2992L19.5916 14.8837H5.28425C1.17251 14.8837 -2.1578 11.5535 -2.1578 7.44186C-2.1578 3.33023 1.17251 0 5.28425 0H37.5579C37.5641 0 37.5704 0 37.5704 0C38.7983 0 40.02 0.310078 41.0991 0.893023C41.0991 0.893023 41.1053 0.893023 41.1053 0.899225C42.4449 1.63101 43.5426 2.77209 44.2248 4.13023C44.7395 5.15349 45 6.30078 45 7.44186V39.7147C45 43.8263 41.6697 47.1566 37.5579 47.1566C33.4462 47.1566 30.1159 43.8263 30.1159 39.7147V25.4078L-2.2943 57.8171C-3.74544 59.2745 -5.64937 60 -7.55336 60Z" fill="#333333"/>
<circle cx="48" cy="48" r="31" fill="#F69536" stroke="white" stroke-width="2" stroke-linejoin="round"/>
<path d="M2 15H1V16V32V34.4142L2.70711 32.7071L18.7071 16.7071L20.4142 15H18H2Z" fill="#008489" stroke="white" stroke-width="2"/>
</g>
<path d="M131.168 20.068V2.97998H134.984L142.016 14.428V2.97998H145.616V20.068H141.872L134.792 8.59598V20.068H131.168Z" fill="#008489"/>
<path d="M118.216 2.57202C120.712 2.57202 122.728 3.41202 124.264 5.06802C125.8 6.72402 126.592 8.88402 126.592 11.548C126.592 14.236 125.8 16.396 124.264 18.028C122.728 19.66 120.688 20.476 118.192 20.476C115.648 20.476 113.608 19.66 112.072 18.028C110.512 16.396 109.744 14.236 109.744 11.548C109.744 8.86002 110.512 6.67602 112.048 5.04402C113.584 3.41202 115.648 2.57202 118.216 2.57202ZM118.168 5.64402C116.752 5.64402 115.624 6.19602 114.784 7.25202C113.944 8.30802 113.512 9.72402 113.512 11.5C113.512 13.324 113.944 14.764 114.76 15.82C115.6 16.852 116.752 17.38 118.216 17.404C119.632 17.404 120.76 16.876 121.576 15.82C122.392 14.764 122.8 13.324 122.8 11.5C122.8 9.70002 122.368 8.28402 121.552 7.22802C120.712 6.17202 119.584 5.64402 118.168 5.64402Z" fill="#008489"/>
<path d="M106.36 2.97998L99.6638 9.72398L106.984 20.068H102.28L97.0958 12.388L94.9118 14.548V20.068H91.2158V2.97998H94.9118V10.084L101.632 2.97998H106.36Z" fill="#008489"/>
<path d="M81.2342 2.95605L87.7382 20.0681H83.8022L82.4582 16.2521H76.0982L74.7062 20.0681H70.8662L77.3702 2.95605H81.2342ZM81.5462 13.5161L79.2902 7.15605L77.0102 13.5161H81.5462Z" fill="#008489"/>
<path d="M68.16 2.97998V5.83598L58.896 16.852H68.472V20.068H54V17.02L63.192 6.17198H54.648V2.97998H68.16Z" fill="#008489"/>
<path d="M145.607 32.6799V33.6639H140.819V36.3399H145.295V37.2879H140.819V40.2399H145.667V41.2239H139.691V32.6799H145.607Z" fill="#888888"/>
<path d="M121.183 32.6799H122.419L126.931 39.6159V32.6799H128.023V41.2239H126.751L122.263 34.3719V41.2239H121.183V32.6799Z" fill="#888888"/>
<path d="M109.501 32.6799V41.2239H108.373V32.6799H109.501Z" fill="#888888"/>
<path d="M97.5331 40.2399V41.2239H91.8691V32.6799H92.9971V40.2399H97.5331Z" fill="#888888"/>
<path d="M73.3496 32.6799H74.5856L79.0976 39.6159V32.6799H80.1896V41.2239H78.9176L74.4296 34.3719V41.2239H73.3496V32.6799Z" fill="#888888"/>
<path d="M58.08 32.476C59.376 32.476 60.384 32.884 61.104 33.7C61.824 34.516 62.184 35.572 62.184 36.88C62.184 38.2 61.824 39.292 61.116 40.144C60.396 41.008 59.388 41.428 58.092 41.428C57.42 41.428 56.832 41.308 56.304 41.068C55.776 40.828 55.344 40.504 55.008 40.072C54.672 39.652 54.42 39.172 54.252 38.62C54.084 38.08 54 37.492 54 36.856C54 35.524 54.36 34.456 55.104 33.664C55.848 32.872 56.832 32.476 58.08 32.476ZM58.08 33.46C57.12 33.46 56.388 33.796 55.884 34.468C55.38 35.14 55.116 35.956 55.116 36.94C55.116 38.02 55.392 38.872 55.932 39.508C56.472 40.144 57.192 40.456 58.092 40.456C58.992 40.456 59.712 40.144 60.252 39.496C60.78 38.86 61.056 38.008 61.056 36.94C61.056 35.884 60.78 35.044 60.24 34.408C59.7 33.784 58.98 33.46 58.08 33.46Z" fill="#888888"/>
</svg>
