<svg width="1003" height="873" viewBox="0 0 1003 873" fill="none" xmlns="http://www.w3.org/2000/svg">
<path d="M13.9412 601.156L192.723 561.68C240.669 551.093 274.679 508.415 274.296 459.315L274.176 443.967C273.766 391.278 312.824 346.606 365.097 339.981L393.638 336.364C417.82 333.299 440.157 321.838 456.749 303.981L487.777 270.588C518.217 237.828 566.191 228.195 606.918 246.664L782.832 326.44C821.484 343.969 866.91 336.252 897.605 306.943L933.328 272.835C964.384 243.181 1010.47 235.663 1049.34 253.91L1139.62 296.288" stroke="#D9D9D9" stroke-width="1.4" stroke-linejoin="round"/>
<path d="M33.8511 633.685L212.633 594.209C260.579 583.622 294.589 540.944 294.206 491.844L294.086 476.496C293.675 423.806 332.734 379.135 385.007 372.51L413.548 368.893C437.73 365.828 460.067 354.367 476.659 336.51L507.687 303.117C538.127 270.357 586.101 260.723 626.828 279.193L802.742 358.969C841.394 376.498 886.82 368.781 917.515 339.472L953.237 305.364C984.294 275.71 1030.38 268.192 1069.25 286.439L1159.53 328.817" stroke="#D9D9D9" stroke-width="1.4" stroke-linejoin="round"/>
<path d="M53.7611 666.214L232.543 626.738C280.489 616.151 314.499 573.473 314.116 524.373L313.996 509.024C313.585 456.335 352.644 411.664 404.917 405.039L433.458 401.422C457.64 398.357 479.977 386.895 496.569 369.039L527.597 335.645C558.037 302.886 606.011 293.252 646.738 311.722L822.652 391.498C861.304 409.027 906.73 401.31 937.425 372.001L973.147 337.893C1004.2 308.239 1050.29 300.721 1089.16 318.968L1179.44 361.346" stroke="#D9D9D9" stroke-width="1.4" stroke-linejoin="round"/>
</svg>
