<svg width="245" height="246" viewBox="0 0 245 246" fill="none" xmlns="http://www.w3.org/2000/svg">
<path d="M49.3513 102.359C43.7963 95.3308 48.207 84.9398 57.1218 84.0533C63.7346 83.3958 68.3654 77.216 67.1396 70.6846C65.4872 61.8797 74.2216 54.7286 82.5272 58.0866C88.6881 60.5775 95.6604 57.2577 97.6103 50.9048C100.239 42.3404 111.296 40.0676 117.09 46.9007C121.388 51.9694 129.104 52.27 133.783 47.551C140.091 41.1892 150.937 44.3153 152.892 53.0582C154.342 59.5435 161.035 63.3957 167.371 61.3916C175.912 58.6899 184.064 66.4987 181.732 75.1484C180.002 81.5647 184.138 88.086 190.679 89.2559C199.498 90.8331 203.087 101.536 197.002 108.111C192.488 112.988 193.12 120.685 198.369 124.761C205.444 130.255 203.648 141.4 195.205 144.394C188.942 146.615 185.924 153.724 188.678 159.772C192.389 167.925 185.62 176.959 176.752 175.686C170.174 174.742 164.199 179.634 163.826 186.269C163.323 195.214 153.131 200.066 145.871 194.818C140.485 190.926 132.921 192.48 129.507 198.182C124.905 205.868 113.625 205.429 109.635 197.408C106.675 191.458 99.2552 189.319 93.5829 192.782C85.9361 197.449 76.1525 191.818 76.3471 182.861C76.4914 176.217 70.9149 170.876 64.2834 171.305C55.3434 171.884 49.2973 162.351 53.632 154.511C56.8473 148.695 54.3921 141.374 48.3205 138.672C40.1355 135.031 39.2121 123.78 46.6937 118.852C52.2435 115.197 53.472 107.573 49.3513 102.359Z" fill="url(#paint0_linear_74_2)"/>
<path d="M98.3064 119.538L89.2356 92.403H93.2283L101.563 117.445H99.5469L108.191 92.403H111.758L120.208 117.445H118.27L126.721 92.403H130.403L121.332 119.538H117.262L109.354 96.3182H110.401L102.454 119.538H98.3064ZM137.898 104.11H151.853V107.405H137.898V104.11ZM138.246 116.166H154.062V119.538H134.37V92.403H153.52V95.7755H138.246V116.166ZM90.7324 126.403H94.6088V153.538H90.7324V126.403ZM75.1491 153.538H71.2727V126.403H75.1491V153.538ZM91.0813 141.444H74.7615V138.071H91.0813V141.444ZM97.8466 153.538L110.135 126.403H113.973L126.3 153.538H122.229L111.259 128.574H112.81L101.839 153.538H97.8466ZM103.08 146.754L104.126 143.653H119.4L120.524 146.754H103.08ZM135.964 153.538L124.025 126.403H128.211L139.181 151.445H136.778L147.826 126.403H151.702L139.802 153.538H135.964ZM157.915 138.11H171.87V141.405H157.915V138.11ZM158.264 150.166H174.08V153.538H154.387V126.403H173.537V129.776H158.264V150.166Z" fill="white"/>
<defs>
<linearGradient id="paint0_linear_74_2" x1="185.502" y1="47.8584" x2="136.383" y2="181.352" gradientUnits="userSpaceOnUse">
<stop stop-color="#237249"/>
<stop offset="1" stop-color="#35C66B"/>
</linearGradient>
</defs>
</svg>
